<svg width="36" height="35" viewBox="0 0 36 35" fill="none" xmlns="http://www.w3.org/2000/svg">
<path d="M16.3172 1.61991C17.1044 0.394387 18.8956 0.39439 19.6828 1.61992L24.3972 8.95975C24.668 9.38141 25.0873 9.68603 25.572 9.81331L34.0094 12.0288C35.4182 12.3988 35.9717 14.1023 35.0494 15.2297L29.5257 21.9815C29.2083 22.3694 29.0482 22.8622 29.0769 23.3626L29.5772 32.0717C29.6607 33.5258 28.2115 34.5787 26.8544 34.0499L18.7261 30.8829C18.2591 30.701 17.7409 30.701 17.2739 30.8829L9.14564 34.0499C7.78847 34.5787 6.33932 33.5258 6.42284 32.0717L6.92306 23.3626C6.9518 22.8622 6.79165 22.3694 6.47431 21.9815L0.950548 15.2297C0.0282493 14.1023 0.581777 12.3988 1.99057 12.0288L10.428 9.81331C10.9127 9.68603 11.332 9.38141 11.6028 8.95975L16.3172 1.61991Z" fill="black"/>
</svg>
