<svg width="40" height="40" viewBox="0 0 40 40" fill="none" xmlns="http://www.w3.org/2000/svg">
<path fill-rule="evenodd" clip-rule="evenodd" d="M20 40C31.0457 40 40 31.0457 40 20C40 8.9543 31.0457 0 20 0C8.9543 0 0 8.9543 0 20C0 31.0457 8.9543 40 20 40ZM25.3769 25.7833C24.2724 25.7833 23.3769 24.8878 23.3769 23.7833V11.3333C23.3769 10.2287 22.4815 9.33327 21.3769 9.33327H17.4821C17.1722 9.33327 16.8665 9.40529 16.5892 9.54364L12.9778 11.3454C12.3786 11.6444 12 12.2564 12 12.9261C12 14.251 13.4043 15.1043 14.5803 14.494L15.7283 13.8981C17.0596 13.207 18.6497 14.1732 18.6497 15.6732V23.7833C18.6497 24.8878 17.7542 25.7833 16.6497 25.7833H13.775C12.7947 25.7833 12 26.578 12 27.5583C12 28.5386 12.7947 29.3333 13.775 29.3333H27.5583C28.5386 29.3333 29.3333 28.5386 29.3333 27.5583C29.3333 26.578 28.5386 25.7833 27.5583 25.7833H25.3769Z" fill="black"/>
</svg>
