<svg width="45" height="46" viewBox="0 0 45 46" fill="none" xmlns="http://www.w3.org/2000/svg">
<path opacity="0.9" fill-rule="evenodd" clip-rule="evenodd" d="M0 23C0 10.573 10.073 0.5 22.5 0.5C34.927 0.5 45 10.573 45 23C45 35.427 34.927 45.5 22.5 45.5C10.073 45.5 0 35.427 0 23ZM11.1783 26.4475C11.2432 26.3826 11.3313 26.3462 11.4231 26.3462C11.5149 26.3462 11.6029 26.3826 11.6678 26.4475C11.7328 26.5125 11.7692 26.6005 11.7692 26.6923C11.7692 26.7841 11.7328 26.8722 11.6678 26.9371C11.6029 27.002 11.5149 27.0385 11.4231 27.0385C11.3313 27.0385 11.2432 27.002 11.1783 26.9371C11.1134 26.8722 11.0769 26.7841 11.0769 26.6923C11.0769 26.6005 11.1134 26.5125 11.1783 26.4475ZM11.4231 23.3462C10.5356 23.3462 9.68451 23.6987 9.05699 24.3262C8.42946 24.9537 8.07692 25.8049 8.07692 26.6923C8.07692 27.5798 8.42946 28.4309 9.05699 29.0584C9.68452 29.6859 10.5356 30.0385 11.4231 30.0385C12.3105 30.0385 13.1616 29.6859 13.7892 29.0584C14.4167 28.4309 14.7692 27.5798 14.7692 26.6923C14.7692 25.8049 14.4167 24.9537 13.7892 24.3262C13.1616 23.6987 12.3105 23.3462 11.4231 23.3462ZM33.3322 26.4475C33.3971 26.3826 33.4851 26.3462 33.5769 26.3462C33.6687 26.3462 33.7568 26.3826 33.8217 26.4475C33.8866 26.5125 33.9231 26.6005 33.9231 26.6923C33.9231 26.7841 33.8866 26.8722 33.8217 26.9371C33.7568 27.002 33.6687 27.0385 33.5769 27.0385C33.4851 27.0385 33.3971 27.002 33.3322 26.9371C33.2672 26.8722 33.2308 26.7841 33.2308 26.6923C33.2308 26.6005 33.2672 26.5125 33.3322 26.4475ZM33.5769 23.3462C32.6895 23.3462 31.8384 23.6987 31.2108 24.3262C30.5833 24.9537 30.2308 25.8049 30.2308 26.6923C30.2308 27.5798 30.5833 28.4309 31.2108 29.0584C31.8384 29.6859 32.6895 30.0385 33.5769 30.0385C34.4644 30.0385 35.3155 29.6859 35.943 29.0584C36.5705 28.4309 36.9231 27.5798 36.9231 26.6923C36.9231 25.8049 36.5705 24.9537 35.943 24.3262C35.3155 23.6987 34.4644 23.3462 33.5769 23.3462ZM16.8248 36.9845C16.8244 36.9841 16.824 36.9837 17.8846 35.9231L16.824 36.9837C16.2382 36.3979 16.2382 35.4482 16.824 34.8624C17.4075 34.2789 18.3522 34.2766 18.9385 34.8557L18.9379 34.8551C18.9374 34.8546 18.9376 34.8548 18.9385 34.8557L18.9403 34.8575L18.9405 34.8576C18.9455 34.8624 18.957 34.8732 18.9748 34.8892C19.0104 34.9214 19.0705 34.9739 19.1534 35.0402C19.3201 35.1736 19.5731 35.3581 19.8981 35.5438C20.5541 35.9187 21.4511 36.2692 22.5 36.2692C23.5489 36.2692 24.4459 35.9187 25.1019 35.5438C25.4269 35.3581 25.6799 35.1736 25.8466 35.0402C25.9295 34.9739 25.9896 34.9214 26.0252 34.8892C26.043 34.8732 26.0545 34.8624 26.0595 34.8576L26.0597 34.8575L26.0615 34.8557C26.6478 34.2766 27.5925 34.2789 28.176 34.8624C28.7618 35.4482 28.7618 36.3979 28.176 36.9837L27.1154 35.9231C28.176 36.9837 28.1756 36.9841 28.1752 36.9845L28.1744 36.9854L28.1726 36.9872L28.1684 36.9913L28.1579 37.0016L28.1285 37.03C28.1051 37.0523 28.0742 37.0811 28.0361 37.1156C27.9599 37.1844 27.8542 37.2761 27.7207 37.3828C27.4547 37.5956 27.0731 37.8727 26.5904 38.1485C25.6311 38.6967 24.2203 39.2692 22.5 39.2692C20.7797 39.2692 19.3689 38.6967 18.4096 38.1485C17.9269 37.8727 17.5453 37.5956 17.2793 37.3828C17.1458 37.2761 17.0401 37.1844 16.9639 37.1156C16.9258 37.0811 16.8949 37.0523 16.8715 37.03L16.8421 37.0016L16.8316 36.9913L16.8274 36.9872L16.8256 36.9854L16.8248 36.9845Z" fill="white"/>
</svg>
