<svg width="22" height="19" viewBox="0 0 22 19" fill="none" xmlns="http://www.w3.org/2000/svg">
<path d="M7.33333 18.5259C6.97607 18.5259 6.63761 18.4458 6.31795 18.2856C5.99829 18.1254 5.73504 17.9046 5.5282 17.6233L0.451282 10.8541C0.150427 10.4592 0 10.0079 0 9.50025C0 8.99256 0.150427 8.54128 0.451282 8.1464L5.5282 1.37717C5.73504 1.09512 5.99829 0.87437 6.31795 0.714917C6.63761 0.555464 6.97607 0.475362 7.33333 0.474609H19.7436C20.3641 0.474609 20.8955 0.695737 21.3377 1.13799C21.78 1.58025 22.0008 2.11126 22 2.73102V16.2695C22 16.89 21.7792 17.4214 21.3377 17.8636C20.8962 18.3059 20.3649 18.5266 19.7436 18.5259H7.33333ZM8.46154 10.6285C8.7812 10.6285 9.04933 10.5201 9.26595 10.3035C9.48256 10.0869 9.5905 9.81916 9.58974 9.50025C9.58899 9.18134 9.48068 8.91358 9.26482 8.69697C9.04896 8.48035 8.7812 8.37204 8.46154 8.37204C8.14188 8.37204 7.87412 8.48035 7.65826 8.69697C7.44239 8.91358 7.33408 9.18134 7.33333 9.50025C7.33258 9.81916 7.44089 10.0873 7.65826 10.3047C7.87562 10.522 8.14338 10.63 8.46154 10.6285ZM12.4103 10.6285C12.7299 10.6285 12.9981 10.5201 13.2147 10.3035C13.4313 10.0869 13.5392 9.81916 13.5385 9.50025C13.5377 9.18134 13.4294 8.91358 13.2135 8.69697C12.9977 8.48035 12.7299 8.37204 12.4103 8.37204C12.0906 8.37204 11.8228 8.48035 11.607 8.69697C11.3911 8.91358 11.2828 9.18134 11.2821 9.50025C11.2813 9.81916 11.3896 10.0873 11.607 10.3047C11.8243 10.522 12.0921 10.63 12.4103 10.6285ZM16.359 10.6285C16.6786 10.6285 16.9468 10.5201 17.1634 10.3035C17.38 10.0869 17.4879 9.81916 17.4872 9.50025C17.4864 9.18134 17.3781 8.91358 17.1623 8.69697C16.9464 8.48035 16.6786 8.37204 16.359 8.37204C16.0393 8.37204 15.7716 8.48035 15.5557 8.69697C15.3398 8.91358 15.2315 9.18134 15.2308 9.50025C15.23 9.81916 15.3383 10.0873 15.5557 10.3047C15.7731 10.522 16.0408 10.63 16.359 10.6285Z" fill="white"/>
</svg>
