<svg width="22" height="17" viewBox="0 0 22 17" fill="none" xmlns="http://www.w3.org/2000/svg">
<path d="M21.8038 7.87314C21.7125 7.74223 19.5355 4.63458 16.5313 2.51039C14.9736 1.40703 13.0089 0.799805 11.0002 0.799805C8.9915 0.799805 7.0279 1.40703 5.46693 2.51039C2.46269 4.63458 0.287886 7.74223 0.196582 7.87314C0.0685933 8.05739 0 8.27637 0 8.50072C0 8.72506 0.0685933 8.94404 0.196582 9.1283C0.287886 9.2592 2.46269 12.3668 5.46693 14.491C7.0279 15.5933 8.9926 16.2005 11.0002 16.2005C13.0078 16.2005 14.9736 15.5933 16.5313 14.4899C19.5355 12.3657 21.7125 9.2581 21.8038 9.1272C21.9315 8.94305 22 8.72428 22 8.50017C22 8.27605 21.9315 8.05728 21.8038 7.87314ZM11.0002 12.3503C8.87269 12.3503 7.15001 10.6233 7.15001 8.50017C7.15001 6.37267 8.87269 4.64999 11.0002 4.64999C13.1233 4.64999 14.8504 6.37267 14.8504 8.50017C14.8504 10.6233 13.1233 12.3503 11.0002 12.3503ZM13.2003 8.50017C13.2003 9.71242 12.2124 10.7003 11.0002 10.7003C10.5651 10.7003 10.1397 10.5712 9.77788 10.3295C9.41607 10.0877 9.13408 9.74413 8.96756 9.34211C8.80104 8.94009 8.75747 8.49773 8.84236 8.07095C8.92725 7.64417 9.13679 7.25215 9.44448 6.94446C9.75217 6.63677 10.1442 6.42723 10.571 6.34234C10.9978 6.25745 11.4401 6.30102 11.8421 6.46754C12.2442 6.63406 12.5878 6.91605 12.8295 7.27786C13.0713 7.63966 13.2003 8.06503 13.2003 8.50017Z" fill="white"/>
</svg>
