<svg width="22" height="22" viewBox="0 0 22 22" fill="none" xmlns="http://www.w3.org/2000/svg">
<path fill-rule="evenodd" clip-rule="evenodd" d="M22 11C22 17.0753 17.0753 22 11 22C4.9247 22 0 17.0753 0 11C0 4.9247 4.9247 0 11 0C17.0753 0 22 4.9247 22 11ZM12 6.6C12 6.04772 11.5523 5.6 11 5.6C10.4477 5.6 10 6.04772 10 6.6V10H6.6C6.04772 10 5.6 10.4477 5.6 11C5.6 11.5523 6.04772 12 6.6 12H10V15.4C10 15.9523 10.4477 16.4 11 16.4C11.5523 16.4 12 15.9523 12 15.4V12H15.4C15.9523 12 16.4 11.5523 16.4 11C16.4 10.4477 15.9523 10 15.4 10H12V6.6Z" fill="white"/>
</svg>
