<svg width="13" height="12" viewBox="0 0 13 12" fill="none" xmlns="http://www.w3.org/2000/svg">
<path fill-rule="evenodd" clip-rule="evenodd" d="M6.62818 0.0373604C6.54606 0.065795 6.47035 0.110138 6.40539 0.167852C6.34042 0.225567 6.28747 0.295522 6.24956 0.373717C6.21165 0.451911 6.18953 0.536812 6.18445 0.623563C6.17938 0.710315 6.19145 0.797216 6.21999 0.879297C6.47384 1.61065 6.44012 2.41117 6.12566 3.11858C6.0547 3.27898 6.05036 3.461 6.1136 3.6246C6.17684 3.7882 6.30248 3.91997 6.46287 3.99093C6.62327 4.0619 6.80529 4.06624 6.96889 4.003C7.13249 3.93976 7.26426 3.81412 7.33523 3.65372C7.78517 2.64038 7.83339 1.49396 7.47011 0.446427C7.44185 0.364152 7.39764 0.288263 7.34 0.223107C7.28236 0.15795 7.21243 0.104808 7.13422 0.0667258C7.05601 0.0286431 6.97105 0.00636835 6.88421 0.001178C6.79738 -0.00401234 6.71037 0.00798372 6.62818 0.0364788V0.0373604ZM8.7026 2.40183C8.67852 2.22811 8.72443 2.05193 8.83025 1.91206C8.93606 1.77219 9.0931 1.68008 9.26683 1.65599C9.44056 1.63191 9.61673 1.67783 9.75661 1.78364C9.89648 1.88945 9.98859 2.0465 10.0127 2.22022C10.0971 2.82737 9.9566 3.44444 9.61771 3.95523C9.56966 4.02759 9.50784 4.08978 9.43576 4.13824C9.36368 4.1867 9.28276 4.2205 9.19762 4.23769C9.11248 4.25488 9.02479 4.25513 8.93955 4.23844C8.85431 4.22174 8.7732 4.18841 8.70084 4.14037C8.62848 4.09232 8.56629 4.03049 8.51783 3.95841C8.46936 3.88633 8.43557 3.80541 8.41838 3.72027C8.40119 3.63513 8.40093 3.54744 8.41763 3.4622C8.43433 3.37697 8.46765 3.29585 8.5157 3.22349C8.67612 2.98156 8.74259 2.68935 8.7026 2.40183ZM3.51433 3.64226C3.75529 3.58053 4.00791 3.58048 4.24889 3.64211C4.48986 3.70374 4.71144 3.82507 4.89317 3.9949L4.90375 4.00548L8.35172 7.45345L8.35613 7.45786C8.52768 7.63441 8.65214 7.85122 8.71807 8.08839C8.78401 8.32556 8.78931 8.5755 8.7335 8.81525C8.67768 9.05501 8.56254 9.2769 8.39863 9.46057C8.23473 9.64423 8.02731 9.78379 7.79543 9.86641L2.30124 11.9144L2.29507 11.917C2.0399 12.0074 1.76446 12.0244 1.50015 11.9658C1.23584 11.9073 0.993281 11.7757 0.80012 11.5861C0.606959 11.3964 0.470964 11.1563 0.407635 10.8931C0.344305 10.6299 0.356188 10.3542 0.441929 10.0974L2.48109 4.60762C2.55926 4.37322 2.69482 4.1621 2.87544 3.99349C3.05607 3.82488 3.276 3.70414 3.51522 3.64226H3.51433ZM9.79932 6.83368C10.0771 6.76965 10.3688 6.81146 10.6175 6.95093C10.7706 7.0364 10.9514 7.05752 11.1202 7.00965C11.2889 6.96179 11.4317 6.84886 11.5171 6.69571C11.6026 6.54256 11.6237 6.36173 11.5759 6.19301C11.528 6.02429 11.4151 5.88149 11.2619 5.79603C10.7282 5.49747 10.1028 5.40762 9.50663 5.54389C9.33559 5.5827 9.18698 5.68787 9.09348 5.83626C8.99999 5.98464 8.96927 6.16409 9.00808 6.33513C9.04689 6.50617 9.15206 6.65478 9.30045 6.74828C9.44883 6.84177 9.62829 6.87249 9.79932 6.83368ZM11.7512 2.94579C11.985 2.94579 12.2093 3.03867 12.3746 3.204C12.5399 3.36934 12.6328 3.59358 12.6328 3.8274C12.6328 4.06121 12.5399 4.28545 12.3746 4.45079C12.2093 4.61612 11.985 4.709 11.7512 4.709C11.5174 4.709 11.2931 4.61612 11.1278 4.45079C10.9625 4.28545 10.8696 4.06121 10.8696 3.8274C10.8696 3.59358 10.9625 3.36934 11.1278 3.204C11.2931 3.03867 11.5174 2.94579 11.7512 2.94579Z" fill="black"/>
</svg>
