<svg width="22" height="23" viewBox="0 0 22 23" fill="none" xmlns="http://www.w3.org/2000/svg">
<path d="M3.80769 0.145508C2.79783 0.145508 1.82933 0.546674 1.11525 1.26075C0.401166 1.97484 0 2.94334 0 3.9532V18.3378C0 19.3477 0.401166 20.3162 1.11525 21.0303C1.82933 21.7443 2.79783 22.1455 3.80769 22.1455H18.1923C19.2022 22.1455 20.1707 21.7443 20.8848 21.0303C21.5988 20.3162 22 19.3477 22 18.3378V3.9532C22 2.94334 21.5988 1.97484 20.8848 1.26075C20.1707 0.546674 19.2022 0.145508 18.1923 0.145508H3.80769ZM16.9231 6.06858V16.2224C16.9231 16.4468 16.8339 16.6621 16.6752 16.8208C16.5166 16.9794 16.3013 17.0686 16.0769 17.0686C15.8525 17.0686 15.6373 16.9794 15.4786 16.8208C15.3199 16.6621 15.2308 16.4468 15.2308 16.2224V6.06858C15.2308 5.84417 15.3199 5.62895 15.4786 5.47026C15.6373 5.31158 15.8525 5.22243 16.0769 5.22243C16.3013 5.22243 16.5166 5.31158 16.6752 5.47026C16.8339 5.62895 16.9231 5.84417 16.9231 6.06858ZM11 11.1455C11.2244 11.1455 11.4396 11.2347 11.5983 11.3933C11.757 11.552 11.8462 11.7672 11.8462 11.9917V16.2224C11.8462 16.4468 11.757 16.6621 11.5983 16.8208C11.4396 16.9794 11.2244 17.0686 11 17.0686C10.7756 17.0686 10.5604 16.9794 10.4017 16.8208C10.243 16.6621 10.1538 16.4468 10.1538 16.2224V11.9917C10.1538 11.7672 10.243 11.552 10.4017 11.3933C10.5604 11.2347 10.7756 11.1455 11 11.1455ZM6.76923 8.60705V16.2224C6.76923 16.4468 6.68008 16.6621 6.5214 16.8208C6.36271 16.9794 6.14749 17.0686 5.92308 17.0686C5.69866 17.0686 5.48344 16.9794 5.32476 16.8208C5.16607 16.6621 5.07692 16.4468 5.07692 16.2224V8.60705C5.07692 8.38263 5.16607 8.16741 5.32476 8.00873C5.48344 7.85004 5.69866 7.76089 5.92308 7.76089C6.14749 7.76089 6.36271 7.85004 6.5214 8.00873C6.68008 8.16741 6.76923 8.38263 6.76923 8.60705Z" fill="white"/>
</svg>
