<svg width="22" height="23" viewBox="0 0 22 23" fill="none" xmlns="http://www.w3.org/2000/svg">
<path d="M12.54 0.571497C12.0591 0.341846 11.5329 0.222656 11 0.222656C10.4671 0.222656 9.94091 0.341846 9.46001 0.571497C9.03718 0.774325 8.64977 1.10486 8.10782 1.56739L8.02304 1.63822C7.55514 2.06 6.95651 2.30816 6.32744 2.34115L6.21798 2.34973C5.50754 2.40661 4.99994 2.44632 4.55779 2.603C4.05528 2.78053 3.59884 3.06821 3.2219 3.44497C2.84495 3.82173 2.55705 4.27803 2.37927 4.78045C2.22366 5.22259 2.18395 5.7302 2.12707 6.44063L2.11849 6.5501C2.08551 7.17917 1.83734 7.7778 1.41557 8.2457L1.34474 8.3294C0.882204 8.87243 0.550596 9.25984 0.348841 9.68266C0.11919 10.1636 0 10.6897 0 11.2227C0 11.7556 0.11919 12.2817 0.348841 12.7626C0.551669 13.1855 0.882204 13.5729 1.34474 14.1148L1.41557 14.1996C1.85556 14.7147 2.06376 15.2073 2.11849 15.8952L2.12707 16.0047C2.18395 16.7151 2.22366 17.2227 2.38034 17.6649C2.55787 18.1674 2.84555 18.6238 3.22231 19.0008C3.59907 19.3777 4.05537 19.6656 4.55779 19.8434C4.99994 19.999 5.50754 20.0387 6.21798 20.0956L6.32744 20.1042C7.00246 20.1578 7.49719 20.3596 8.02304 20.8071L8.10675 20.8779C8.64977 21.3405 9.03718 21.6721 9.46001 21.8738C9.94091 22.1035 10.4671 22.2227 11 22.2227C11.5329 22.2227 12.0591 22.1035 12.54 21.8738C12.9628 21.671 13.3502 21.3405 13.8922 20.8779L13.977 20.8071C14.4921 20.3671 14.9847 20.1589 15.6726 20.1042L15.782 20.0956C16.4925 20.0387 17.0001 19.999 17.4422 19.8423C17.9447 19.6648 18.4012 19.3771 18.7781 19.0003C19.155 18.6236 19.443 18.1673 19.6207 17.6649C19.7763 17.2227 19.816 16.7151 19.8729 16.0047L19.8815 15.8952C19.9352 15.2202 20.1369 14.7255 20.5844 14.1996L20.6553 14.1148C21.1178 13.5729 21.4494 13.1855 21.6512 12.7626C21.8808 12.2817 22 11.7556 22 11.2227C22 10.6897 21.8808 10.1636 21.6512 9.68266C21.4483 9.25984 21.1178 8.87243 20.6553 8.33048L20.5844 8.2457C20.1627 7.7778 19.9145 7.17917 19.8815 6.5501L19.8729 6.44063C19.816 5.7302 19.7763 5.22259 19.6197 4.78045C19.4421 4.27794 19.1544 3.8215 18.7777 3.44455C18.4009 3.06761 17.9446 2.7797 17.4422 2.60192C17.0001 2.44632 16.4925 2.40661 15.782 2.34973L15.6726 2.34115C15.0435 2.30816 14.4449 2.06 13.977 1.63822L13.8922 1.56739C13.3502 1.10486 12.9628 0.773252 12.54 0.571497ZM11 14.1706C11.2135 14.1706 11.4182 14.2554 11.5691 14.4064C11.7201 14.5573 11.8049 14.762 11.8049 14.9755V15.5121C11.8049 15.7256 11.7201 15.9303 11.5691 16.0812C11.4182 16.2322 11.2135 16.317 11 16.317C10.7865 16.317 10.5818 16.2322 10.4309 16.0812C10.2799 15.9303 10.1951 15.7256 10.1951 15.5121V14.9755C10.1951 14.762 10.2799 14.5573 10.4309 14.4064C10.5818 14.2554 10.7865 14.1706 11 14.1706ZM13.009 6.8581C13.5928 7.37536 13.9512 8.13301 13.9512 9.06559C13.9512 9.75242 13.7752 10.2869 13.4683 10.7215C13.1935 11.1132 12.8373 11.3804 12.5851 11.5693L12.5561 11.5908C12.2738 11.8032 12.1097 11.9342 11.9937 12.0994C11.8972 12.2357 11.8049 12.4396 11.8049 12.8292C11.8049 13.0426 11.7201 13.2474 11.5691 13.3983C11.4182 13.5493 11.2135 13.6341 11 13.6341C10.7865 13.6341 10.5818 13.5493 10.4309 13.3983C10.2799 13.2474 10.1951 13.0426 10.1951 12.8292C10.1951 12.1424 10.3711 11.6058 10.6781 11.1722C10.9528 10.7816 11.3091 10.5144 11.5613 10.3244L11.5902 10.303C11.8725 10.0905 12.0367 9.95954 12.1526 9.79427C12.2492 9.65798 12.3415 9.45408 12.3415 9.06559C12.3415 8.57194 12.1633 8.26072 11.9422 8.06326C11.6785 7.84245 11.3439 7.72432 11 7.73058C10.6351 7.73058 10.2949 7.85292 10.0588 8.06326C9.83669 8.25965 9.65854 8.57194 9.65854 9.06559C9.65854 9.27906 9.57374 9.48378 9.4228 9.63473C9.27186 9.78567 9.06714 9.87047 8.85367 9.87047C8.6402 9.87047 8.43548 9.78567 8.28454 9.63473C8.1336 9.48378 8.0488 9.27906 8.0488 9.06559C8.0488 8.13301 8.40723 7.37536 8.98996 6.8581C9.54827 6.37649 10.2627 6.11444 11 6.12083C11.7083 6.12083 12.4413 6.35478 13.009 6.8581Z" fill="white"/>
</svg>
