<svg width="22" height="27" viewBox="0 0 22 27" fill="none" xmlns="http://www.w3.org/2000/svg">
<path d="M13.242 13.0304C13.2837 13.0304 13.3245 13.0182 13.3592 12.9951C13.3939 12.9721 13.4211 12.9393 13.4372 12.9009C13.4534 12.8625 13.4578 12.8201 13.45 12.7792C13.4422 12.7383 13.4225 12.7005 13.3933 12.6708L9.24703 8.45471C9.21757 8.42479 9.17987 8.40432 9.13873 8.3959C9.09759 8.38748 9.05487 8.39149 9.01602 8.40743C8.97717 8.42337 8.94394 8.45051 8.92057 8.48539C8.89719 8.52028 8.88473 8.56133 8.88477 8.60332V12.3958C8.88477 12.5641 8.95163 12.7255 9.07065 12.8445C9.18966 12.9635 9.35108 13.0304 9.5194 13.0304H13.242Z" fill="white"/>
<path d="M7.88 14.0351C7.66278 13.8208 7.49018 13.5656 7.37217 13.2842C7.25416 13.0028 7.19309 12.7008 7.19248 12.3956V7.53013H3.3847C2.48783 7.53278 1.62846 7.89023 0.994283 8.52441C0.360103 9.15859 0.00265077 10.018 0 10.9148V22.7613C0 23.6589 0.356601 24.5199 0.991355 25.1546C1.62611 25.7894 2.48702 26.146 3.3847 26.146H11.0003C11.8979 26.146 12.7589 25.7894 13.3936 25.1546C14.0284 24.5199 14.385 23.6589 14.385 22.7613V14.7226H9.51946C9.21429 14.7222 8.91223 14.6612 8.63081 14.5432C8.34938 14.4252 8.09418 14.2525 7.88 14.0351ZM17.135 6.26087H20.8577C20.8993 6.2609 20.9401 6.24863 20.9748 6.22558C21.0095 6.20254 21.0367 6.16975 21.0528 6.13134C21.069 6.09292 21.0735 6.05059 21.0656 6.00965C21.0578 5.96872 21.0381 5.931 21.0089 5.90124L16.8627 1.68518C16.8332 1.65526 16.7955 1.63479 16.7544 1.62637C16.7132 1.61795 16.6705 1.62196 16.6317 1.6379C16.5928 1.65384 16.5596 1.68097 16.5362 1.71586C16.5128 1.75074 16.5004 1.7918 16.5004 1.83379V5.62624C16.5004 5.79455 16.5673 5.95597 16.6863 6.07499C16.8053 6.194 16.9667 6.26087 17.135 6.26087Z" fill="white"/>
<path d="M17.1347 7.95322C16.519 7.94852 15.9298 7.70185 15.4944 7.26647C15.0591 6.83109 14.8124 6.24194 14.8077 5.62624V0.760742H9.096C8.25473 0.761722 7.4482 1.09635 6.85333 1.69122C6.25846 2.28609 5.92383 3.09262 5.92285 3.9339V5.83779H8.1504C8.43473 5.8389 8.71604 5.89619 8.97815 6.00637C9.24027 6.11655 9.47802 6.27745 9.67775 6.47982L15.4508 12.3502C15.8536 12.7588 16.0785 13.3101 16.0764 13.8838V21.0689H18.882C20.6013 21.0689 21.9996 19.6452 21.9996 17.8958V7.95322H17.1347Z" fill="white"/>
</svg>
