<svg width="53" height="43" viewBox="0 0 53 43" fill="none" xmlns="http://www.w3.org/2000/svg">
<g filter="url(#filter0_f_817_19629)">
<ellipse cx="28.1436" cy="21.1087" rx="16.698" ry="12.8541" transform="rotate(-16.6933 28.1436 21.1087)" fill="#4C365F"/>
</g>
<g filter="url(#filter1_b_817_19629)">
<ellipse opacity="0.5" cx="31.9265" cy="30.9674" rx="10.6635" ry="2.69279" transform="rotate(-13.3501 31.9265 30.9674)" fill="#9342A5"/>
<g opacity="0.5" filter="url(#filter2_i_817_19629)">
<path d="M38.5215 12.5755C38.8649 14.0225 34.4182 16.4276 28.6881 17.7874C22.958 19.1472 18.1143 18.9469 17.7709 17.4999C17.4275 16.0529 21.7944 13.7775 27.5245 12.4177C33.2546 11.0578 38.1782 11.1285 38.5215 12.5755Z" fill="#E8A5FF"/>
</g>
<path opacity="0.7" d="M17.7957 17.6045C20.1085 20.8195 38.374 16.1527 38.5463 12.6801L42.3266 28.6098C41.6304 32.2069 23.6295 36.5894 21.576 33.5343L17.7957 17.6045Z" fill="url(#paint0_linear_817_19629)"/>
<g opacity="0.5" filter="url(#filter3_i_817_19629)">
<path d="M4.46322 22.5386L3.85721 20.9119C11.6089 23.7218 19.0892 23.0536 19.3378 24.1016C19.5863 25.1497 21.2677 32.2346 20.7207 29.9297C20.4164 28.6476 17.2736 27.6455 13.4214 26.4575C10.3481 25.5098 7.16039 24.0062 4.46322 22.5386Z" fill="#E8A5FF"/>
</g>
<ellipse cx="31.0858" cy="13.8976" rx="4.30847" ry="0.969406" transform="rotate(-13.3501 31.0858 13.8976)" fill="#18012F"/>
<g opacity="0.7" filter="url(#filter4_i_817_19629)">
<path d="M41.1827 23.7897C41.1507 23.6548 41.2688 23.4147 41.488 23.0988C43.3378 20.4336 44.4371 17.3604 43.9069 14.1598L43.8958 14.0927C43.7759 13.3687 43.5833 12.6586 43.321 11.9732L43.2023 11.6632C42.7717 10.5382 42.1253 9.50821 41.2994 8.63126C40.2739 7.54237 38.9995 6.71869 37.5855 6.23097L36.0343 5.69592C35.2094 5.41142 34.3616 5.19877 33.5001 5.06033C32.1444 4.84246 30.7653 4.81008 29.4008 4.96407L27.8991 5.13354L26.6917 5.42008C25.268 5.75793 23.8994 6.29554 22.6264 7.01692L22.2937 7.20546C21.7791 7.49707 21.2892 7.8303 20.8289 8.20181L20.3115 8.61953C19.6974 9.1152 19.1721 9.71169 18.758 10.3835C18.0201 11.5805 17.6621 12.973 17.731 14.3775L17.8562 16.9266C17.9135 17.1171 21.3635 16.2789 21.0002 16.1805C20.8251 16.1331 20.555 15.3448 20.3222 14.5411C20.0046 13.4449 20.2687 12.2718 20.9643 11.367C21.1333 11.1472 21.3259 10.9466 21.5385 10.7687L22.0866 10.3102C22.4926 9.97058 22.9241 9.66272 23.3773 9.38937L23.4971 9.31715C24.5709 8.66953 25.7386 8.19243 26.9587 7.90289L27.3796 7.80301C28.1063 7.63056 28.8449 7.51301 29.5892 7.45137L29.8869 7.42672C31.3234 7.30774 32.7698 7.40487 34.1775 7.71489L34.4337 7.77131C35.1041 7.91894 35.76 8.12632 36.3933 8.39098L37.0977 8.68528C37.7911 8.97504 38.4324 9.37658 38.9958 9.87391L39.1444 10.005C39.5954 10.4031 39.9799 10.8708 40.2833 11.3904L40.4901 11.7447C40.9083 12.4609 41.1085 13.2835 41.0664 14.1118C41.0196 15.0334 40.675 15.9151 40.0846 16.6243L39.6159 17.1872L41.1827 23.7897Z" fill="url(#paint1_linear_817_19629)"/>
</g>
</g>
<g opacity="0.9">
<g filter="url(#filter5_i_817_19629)">
<rect x="3.76709" y="28.9189" width="0.393489" height="1.57396" fill="url(#paint2_linear_817_19629)"/>
</g>
<g filter="url(#filter6_ii_817_19629)">
<path fill-rule="evenodd" clip-rule="evenodd" d="M4.15202 27.6141C4.10801 27.7775 4.06099 27.9521 3.96365 28.1319C3.88971 27.9902 3.83468 27.8527 3.78233 27.7219C3.52 27.0664 3.32468 26.5784 1.15179 26.5586H1.0127C1.0127 27.8625 2.06972 28.9195 3.37363 28.9195H4.5541C5.85801 28.9195 6.91503 27.8625 6.91503 26.5586H6.75823C4.43128 26.5775 4.31141 27.0224 4.15202 27.6141Z" fill="url(#paint3_linear_817_19629)"/>
</g>
</g>
<g filter="url(#filter7_ii_817_19629)">
<rect x="0.169434" y="29.9316" width="7.58872" height="1.51774" rx="0.379436" fill="url(#paint4_linear_817_19629)"/>
</g>
<path d="M0.928467 31.4482H6.99944L6.36258 34.6326C6.29164 34.9873 5.98018 35.2426 5.61844 35.2426H2.30946C1.94772 35.2426 1.63627 34.9873 1.56533 34.6326L0.928467 31.4482Z" fill="#D9D9D9"/>
<g opacity="0.7" filter="url(#filter8_ii_817_19629)">
<path d="M0.928467 31.4482H6.99944L6.36258 34.6326C6.29164 34.9873 5.98018 35.2426 5.61844 35.2426H2.30946C1.94772 35.2426 1.63627 34.9873 1.56533 34.6326L0.928467 31.4482Z" fill="url(#paint5_linear_817_19629)"/>
</g>
<defs>
<filter id="filter0_f_817_19629" x="3.96985" y="0.136356" width="48.3476" height="41.9451" filterUnits="userSpaceOnUse" color-interpolation-filters="sRGB">
<feFlood flood-opacity="0" result="BackgroundImageFix"/>
<feBlend mode="normal" in="SourceGraphic" in2="BackgroundImageFix" result="shape"/>
<feGaussianBlur stdDeviation="3.87762" result="effect1_foregroundBlur_817_19629"/>
</filter>
<filter id="filter1_b_817_19629" x="-1.31299" y="-0.302" width="50.5234" height="40.0347" filterUnits="userSpaceOnUse" color-interpolation-filters="sRGB">
<feFlood flood-opacity="0" result="BackgroundImageFix"/>
<feGaussianBlur in="BackgroundImageFix" stdDeviation="2.58508"/>
<feComposite in2="SourceAlpha" operator="in" result="effect1_backgroundBlur_817_19629"/>
<feBlend mode="normal" in="SourceGraphic" in2="effect1_backgroundBlur_817_19629" result="shape"/>
</filter>
<filter id="filter2_i_817_19629" x="17.2134" y="11.0115" width="21.3269" height="7.69257" filterUnits="userSpaceOnUse" color-interpolation-filters="sRGB">
<feFlood flood-opacity="0" result="BackgroundImageFix"/>
<feBlend mode="normal" in="SourceGraphic" in2="BackgroundImageFix" result="shape"/>
<feColorMatrix in="SourceAlpha" type="matrix" values="0 0 0 0 0 0 0 0 0 0 0 0 0 0 0 0 0 0 127 0" result="hardAlpha"/>
<feOffset dx="-1.29254" dy="-0.430847"/>
<feGaussianBlur stdDeviation="0.269279"/>
<feComposite in2="hardAlpha" operator="arithmetic" k2="-1" k3="1"/>
<feColorMatrix type="matrix" values="0 0 0 0 0 0 0 0 0 0 0 0 0 0 0 0 0 0 0.25 0"/>
<feBlend mode="normal" in2="shape" result="effect1_innerShadow_817_19629"/>
</filter>
<filter id="filter3_i_817_19629" x="3.31862" y="20.3736" width="17.5107" height="10.0141" filterUnits="userSpaceOnUse" color-interpolation-filters="sRGB">
<feFlood flood-opacity="0" result="BackgroundImageFix"/>
<feBlend mode="normal" in="SourceGraphic" in2="BackgroundImageFix" result="shape"/>
<feColorMatrix in="SourceAlpha" type="matrix" values="0 0 0 0 0 0 0 0 0 0 0 0 0 0 0 0 0 0 127 0" result="hardAlpha"/>
<feOffset dx="-0.861694" dy="-1.72339"/>
<feGaussianBlur stdDeviation="0.269279"/>
<feComposite in2="hardAlpha" operator="arithmetic" k2="-1" k3="1"/>
<feColorMatrix type="matrix" values="0 0 0 0 0 0 0 0 0 0 0 0 0 0 0 0 0 0 0.25 0"/>
<feBlend mode="normal" in2="shape" result="effect1_innerShadow_817_19629"/>
</filter>
<filter id="filter4_i_817_19629" x="17.0764" y="4.22189" width="26.9639" height="19.5681" filterUnits="userSpaceOnUse" color-interpolation-filters="sRGB">
<feFlood flood-opacity="0" result="BackgroundImageFix"/>
<feBlend mode="normal" in="SourceGraphic" in2="BackgroundImageFix" result="shape"/>
<feColorMatrix in="SourceAlpha" type="matrix" values="0 0 0 0 0 0 0 0 0 0 0 0 0 0 0 0 0 0 127 0" result="hardAlpha"/>
<feOffset dx="-0.861694" dy="-0.64627"/>
<feGaussianBlur stdDeviation="0.323135"/>
<feComposite in2="hardAlpha" operator="arithmetic" k2="-1" k3="1"/>
<feColorMatrix type="matrix" values="0 0 0 0 0.45812 0 0 0 0 0.367608 0 0 0 0 0.475781 0 0 0 0.5 0"/>
<feBlend mode="normal" in2="shape" result="effect1_innerShadow_817_19629"/>
</filter>
<filter id="filter5_i_817_19629" x="3.76709" y="27.7055" width="0.393555" height="2.78766" filterUnits="userSpaceOnUse" color-interpolation-filters="sRGB">
<feFlood flood-opacity="0" result="BackgroundImageFix"/>
<feBlend mode="normal" in="SourceGraphic" in2="BackgroundImageFix" result="shape"/>
<feColorMatrix in="SourceAlpha" type="matrix" values="0 0 0 0 0 0 0 0 0 0 0 0 0 0 0 0 0 0 127 0" result="hardAlpha"/>
<feOffset dy="-1.21344"/>
<feGaussianBlur stdDeviation="1.21344"/>
<feComposite in2="hardAlpha" operator="arithmetic" k2="-1" k3="1"/>
<feColorMatrix type="matrix" values="0 0 0 0 0.332064 0 0 0 0 0.584082 0 0 0 0 0.0616689 0 0 0 1 0"/>
<feBlend mode="normal" in2="shape" result="effect1_innerShadow_817_19629"/>
</filter>
<filter id="filter6_ii_817_19629" x="1.0127" y="25.9519" width="5.90234" height="3.33208" filterUnits="userSpaceOnUse" color-interpolation-filters="sRGB">
<feFlood flood-opacity="0" result="BackgroundImageFix"/>
<feBlend mode="normal" in="SourceGraphic" in2="BackgroundImageFix" result="shape"/>
<feColorMatrix in="SourceAlpha" type="matrix" values="0 0 0 0 0 0 0 0 0 0 0 0 0 0 0 0 0 0 127 0" result="hardAlpha"/>
<feOffset dy="-0.606722"/>
<feGaussianBlur stdDeviation="0.455041"/>
<feComposite in2="hardAlpha" operator="arithmetic" k2="-1" k3="1"/>
<feColorMatrix type="matrix" values="0 0 0 0 0.332064 0 0 0 0 0.584082 0 0 0 0 0.0616689 0 0 0 1 0"/>
<feBlend mode="normal" in2="shape" result="effect1_innerShadow_817_19629"/>
<feColorMatrix in="SourceAlpha" type="matrix" values="0 0 0 0 0 0 0 0 0 0 0 0 0 0 0 0 0 0 127 0" result="hardAlpha"/>
<feOffset dy="0.606722"/>
<feGaussianBlur stdDeviation="0.182017"/>
<feComposite in2="hardAlpha" operator="arithmetic" k2="-1" k3="1"/>
<feColorMatrix type="matrix" values="0 0 0 0 1 0 0 0 0 1 0 0 0 0 1 0 0 0 0.7 0"/>
<feBlend mode="normal" in2="effect1_innerShadow_817_19629" result="effect2_innerShadow_817_19629"/>
</filter>
<filter id="filter7_ii_817_19629" x="0.169434" y="29.3249" width="7.58862" height="2.42766" filterUnits="userSpaceOnUse" color-interpolation-filters="sRGB">
<feFlood flood-opacity="0" result="BackgroundImageFix"/>
<feBlend mode="normal" in="SourceGraphic" in2="BackgroundImageFix" result="shape"/>
<feColorMatrix in="SourceAlpha" type="matrix" values="0 0 0 0 0 0 0 0 0 0 0 0 0 0 0 0 0 0 127 0" result="hardAlpha"/>
<feOffset dy="-0.606722"/>
<feGaussianBlur stdDeviation="0.455041"/>
<feComposite in2="hardAlpha" operator="arithmetic" k2="-1" k3="1"/>
<feColorMatrix type="matrix" values="0 0 0 0 0.59056 0 0 0 0 0.393588 0 0 0 0 0.112201 0 0 0 0.7 0"/>
<feBlend mode="normal" in2="shape" result="effect1_innerShadow_817_19629"/>
<feColorMatrix in="SourceAlpha" type="matrix" values="0 0 0 0 0 0 0 0 0 0 0 0 0 0 0 0 0 0 127 0" result="hardAlpha"/>
<feOffset dy="0.303361"/>
<feGaussianBlur stdDeviation="0.303361"/>
<feComposite in2="hardAlpha" operator="arithmetic" k2="-1" k3="1"/>
<feColorMatrix type="matrix" values="0 0 0 0 1 0 0 0 0 1 0 0 0 0 1 0 0 0 0.7 0"/>
<feBlend mode="normal" in2="effect1_innerShadow_817_19629" result="effect2_innerShadow_817_19629"/>
</filter>
<filter id="filter8_ii_817_19629" x="0.928467" y="30.8415" width="6.07104" height="4.70403" filterUnits="userSpaceOnUse" color-interpolation-filters="sRGB">
<feFlood flood-opacity="0" result="BackgroundImageFix"/>
<feBlend mode="normal" in="SourceGraphic" in2="BackgroundImageFix" result="shape"/>
<feColorMatrix in="SourceAlpha" type="matrix" values="0 0 0 0 0 0 0 0 0 0 0 0 0 0 0 0 0 0 127 0" result="hardAlpha"/>
<feOffset dy="-0.606722"/>
<feGaussianBlur stdDeviation="0.303361"/>
<feComposite in2="hardAlpha" operator="arithmetic" k2="-1" k3="1"/>
<feColorMatrix type="matrix" values="0 0 0 0 0.65098 0 0 0 0 0.458824 0 0 0 0 0.0470588 0 0 0 0.7 0"/>
<feBlend mode="normal" in2="shape" result="effect1_innerShadow_817_19629"/>
<feColorMatrix in="SourceAlpha" type="matrix" values="0 0 0 0 0 0 0 0 0 0 0 0 0 0 0 0 0 0 127 0" result="hardAlpha"/>
<feOffset dy="0.303361"/>
<feGaussianBlur stdDeviation="0.182017"/>
<feComposite in2="hardAlpha" operator="arithmetic" k2="-1" k3="1"/>
<feColorMatrix type="matrix" values="0 0 0 0 0.65098 0 0 0 0 0.458824 0 0 0 0 0.0470588 0 0 0 1 0"/>
<feBlend mode="normal" in2="effect1_innerShadow_817_19629" result="effect2_innerShadow_817_19629"/>
</filter>
<linearGradient id="paint0_linear_817_19629" x1="19.9796" y1="26.8074" x2="40.7302" y2="21.883" gradientUnits="userSpaceOnUse">
<stop stop-color="#B6D0F7"/>
<stop offset="0.14" stop-color="#EEF4E1"/>
<stop offset="0.28" stop-color="#FAFCFE"/>
<stop offset="0.42" stop-color="#E2C1F9"/>
<stop offset="0.57" stop-color="#BFD1F9"/>
<stop offset="0.71" stop-color="#FAFCFE"/>
<stop offset="0.85" stop-color="#BAE4E2"/>
<stop offset="1" stop-color="#8C6BE3"/>
</linearGradient>
<linearGradient id="paint1_linear_817_19629" x1="18.1952" y1="18.3552" x2="43.5571" y2="12.3365" gradientUnits="userSpaceOnUse">
<stop stop-color="#B6D0F7"/>
<stop offset="0.14" stop-color="#EEF4E1"/>
<stop offset="0.28" stop-color="#FAFCFE"/>
<stop offset="0.42" stop-color="#E2C1F9"/>
<stop offset="0.57" stop-color="#BFD1F9"/>
<stop offset="0.71" stop-color="#FAFCFE"/>
<stop offset="0.85" stop-color="#BAE4E2"/>
<stop offset="1" stop-color="#8C6BE3"/>
</linearGradient>
<linearGradient id="paint2_linear_817_19629" x1="3.76709" y1="29.7059" x2="4.16058" y2="29.7059" gradientUnits="userSpaceOnUse">
<stop stop-color="#80B1A7"/>
<stop offset="0.33" stop-color="#EEF4E1"/>
<stop offset="0.66" stop-color="#FAFCFE"/>
<stop offset="1" stop-color="#FAE4FF"/>
</linearGradient>
<linearGradient id="paint3_linear_817_19629" x1="1.0127" y1="27.7391" x2="6.91503" y2="27.7391" gradientUnits="userSpaceOnUse">
<stop stop-color="#80B1A7"/>
<stop offset="0.33" stop-color="#EEF4E1"/>
<stop offset="0.66" stop-color="#FAFCFE"/>
<stop offset="1" stop-color="#FAE4FF"/>
</linearGradient>
<linearGradient id="paint4_linear_817_19629" x1="0.169434" y1="30.6905" x2="7.75815" y2="30.6905" gradientUnits="userSpaceOnUse">
<stop stop-color="#E2C1F9"/>
<stop offset="0.33" stop-color="#FEBD8E"/>
<stop offset="0.66" stop-color="#FBFFE4"/>
<stop offset="1" stop-color="#B6D0F7"/>
</linearGradient>
<linearGradient id="paint5_linear_817_19629" x1="0.928467" y1="33.3454" x2="6.99944" y2="33.3454" gradientUnits="userSpaceOnUse">
<stop stop-color="#E2C1F9"/>
<stop offset="0.33" stop-color="#FEBD8E"/>
<stop offset="0.66" stop-color="#FBFFE4"/>
<stop offset="1" stop-color="#B6D0F7"/>
</linearGradient>
</defs>
</svg>
