<svg width="13" height="12" viewBox="0 0 13 12" fill="none" xmlns="http://www.w3.org/2000/svg">
<path fill-rule="evenodd" clip-rule="evenodd" d="M5.55351 11C5.55351 11.5523 6.00123 12 6.55351 12C7.1058 12 7.55351 11.5523 7.55351 11V6.82024H11.3748C11.927 6.82024 12.3748 6.37252 12.3748 5.82024C12.3748 5.26796 11.927 4.82024 11.3748 4.82024H7.55351V1C7.55351 0.447716 7.1058 0 6.55351 0C6.00123 0 5.55351 0.447716 5.55351 1V4.82024H1.37476C0.822471 4.82024 0.374756 5.26796 0.374756 5.82024C0.374756 6.37252 0.822471 6.82024 1.37476 6.82024H5.55351V11Z" fill="currentColor"/>
</svg>
