<svg width="46" height="45" viewBox="0 0 46 45" fill="none" xmlns="http://www.w3.org/2000/svg">
<path opacity="0.9" fill-rule="evenodd" clip-rule="evenodd" d="M0.5 22.5C0.5 10.073 10.573 0 23 0C35.427 0 45.5 10.073 45.5 22.5C45.5 34.927 35.427 45 23 45C10.573 45 0.5 34.927 0.5 22.5ZM11.6783 25.9475C11.7432 25.8826 11.8313 25.8462 11.9231 25.8462C12.0149 25.8462 12.1029 25.8826 12.1678 25.9475C12.2328 26.0125 12.2692 26.1005 12.2692 26.1923C12.2692 26.2841 12.2328 26.3722 12.1678 26.4371C12.1029 26.502 12.0149 26.5385 11.9231 26.5385C11.8313 26.5385 11.7432 26.502 11.6783 26.4371C11.6134 26.3722 11.5769 26.2841 11.5769 26.1923C11.5769 26.1005 11.6134 26.0125 11.6783 25.9475ZM11.9231 22.8462C11.0356 22.8462 10.1845 23.1987 9.55699 23.8262C8.92946 24.4537 8.57692 25.3049 8.57692 26.1923C8.57692 27.0798 8.92946 27.9309 9.55699 28.5584C10.1845 29.1859 11.0356 29.5385 11.9231 29.5385C12.8105 29.5385 13.6616 29.1859 14.2892 28.5584C14.9167 27.9309 15.2692 27.0798 15.2692 26.1923C15.2692 25.3049 14.9167 24.4537 14.2892 23.8262C13.6616 23.1987 12.8105 22.8462 11.9231 22.8462ZM33.8322 25.9475C33.8971 25.8826 33.9851 25.8462 34.0769 25.8462C34.1687 25.8462 34.2568 25.8826 34.3217 25.9475C34.3866 26.0124 34.4231 26.1005 34.4231 26.1923C34.4231 26.2841 34.3866 26.3722 34.3217 26.4371C34.2568 26.502 34.1687 26.5385 34.0769 26.5385C33.9851 26.5385 33.8971 26.502 33.8322 26.4371C33.7672 26.3722 33.7308 26.2841 33.7308 26.1923C33.7308 26.1005 33.7672 26.0125 33.8322 25.9475ZM34.0769 22.8462C33.1895 22.8462 32.3384 23.1987 31.7108 23.8262C31.0833 24.4537 30.7308 25.3049 30.7308 26.1923C30.7308 27.0798 31.0833 27.9309 31.7108 28.5584C32.3384 29.1859 33.1895 29.5385 34.0769 29.5385C34.9644 29.5385 35.8155 29.1859 36.443 28.5584C37.0705 27.9309 37.4231 27.0798 37.4231 26.1923C37.4231 25.3049 37.0705 24.4538 36.443 23.8262C35.8155 23.1987 34.9644 22.8462 34.0769 22.8462ZM19.4438 38.3314L19.4445 38.3306H19.4448C19.4431 38.3323 19.4416 38.3336 19.4405 38.3347L19.4425 38.3327L19.4438 38.3314ZM22.5591 38.3333L19.4448 38.3306C19.4509 38.3249 19.461 38.3155 19.4748 38.3031C19.5104 38.2709 19.5705 38.2184 19.6534 38.1521C19.8201 38.0187 20.0731 37.8342 20.3981 37.6485C21.0541 37.2736 21.9511 36.9231 23 36.9231C24.0489 36.9231 24.9459 37.2736 25.6019 37.6485C25.9269 37.8342 26.1799 38.0187 26.3466 38.1521C26.4295 38.2184 26.4896 38.2709 26.5252 38.3031C26.5397 38.3161 26.55 38.3257 26.556 38.3314L22.5591 38.3333ZM26.5615 38.3366L22.5591 38.3333L19.4405 38.3347L19.4403 38.3348L19.4385 38.3366C19.4376 38.3375 19.4374 38.3377 19.4379 38.3372L19.4385 38.3366C18.8522 38.9157 17.9075 38.9134 17.324 38.3299C16.7382 37.7441 16.7382 36.7944 17.324 36.2086L18.3846 37.2692C17.324 36.2086 17.3244 36.2082 17.3248 36.2078L17.3256 36.2069L17.3274 36.2051L17.3316 36.201L17.3421 36.1907L17.3715 36.1623C17.3949 36.14 17.4258 36.1112 17.4639 36.0768C17.5401 36.0079 17.6458 35.9162 17.7793 35.8095C18.0453 35.5967 18.4269 35.3197 18.9096 35.0438C19.8689 34.4956 21.2797 33.9231 23 33.9231C24.7203 33.9231 26.1311 34.4956 27.0904 35.0438C27.5731 35.3197 27.9547 35.5967 28.2207 35.8095C28.3542 35.9162 28.4599 36.0079 28.5361 36.0768C28.5742 36.1112 28.6051 36.14 28.6285 36.1623L28.6579 36.1907L28.6684 36.201L28.6726 36.2051L28.6744 36.2069L28.6752 36.2078C28.6756 36.2082 28.676 36.2086 27.6154 37.2692L28.676 36.2086C29.2618 36.7944 29.2618 37.7441 28.676 38.3299C28.0925 38.9134 27.1478 38.9157 26.5615 38.3366ZM26.5621 38.3372L26.5615 38.3366C26.5624 38.3375 26.5626 38.3377 26.5621 38.3372ZM26.556 38.3314C26.5574 38.3327 26.5586 38.3338 26.5595 38.3347L26.5575 38.3327L26.5562 38.3314H26.556Z" fill="white"/>
</svg>
