<svg width="21" height="25" viewBox="0 0 21 25" fill="none" xmlns="http://www.w3.org/2000/svg">
<path opacity="0.9" fill-rule="evenodd" clip-rule="evenodd" d="M14.3276 0.355482C14.9597 -0.17998 15.9062 -0.101625 16.4417 0.530492C19.3881 4.00876 20.9961 8.01942 21 12.1646C21.0039 16.3099 19.4033 20.3223 16.4631 23.8035C15.9285 24.4364 14.9821 24.5161 14.3492 23.9816C13.7163 23.447 13.6366 22.5006 14.1712 21.8677C16.72 18.85 18.0032 15.5066 18 12.1674C17.9969 8.82823 16.7074 5.48552 14.1526 2.46957C13.6171 1.83745 13.6955 0.890944 14.3276 0.355482ZM7.44621 3.19869C8.08167 2.66719 9.02767 2.75146 9.55917 3.38692C11.7474 6.00321 12.9517 9.02869 12.9517 12.1678C12.9517 15.307 11.7474 18.3324 9.55917 20.9487C9.02767 21.5842 8.08167 21.6685 7.44621 21.137C6.81076 20.6055 6.72648 19.6595 7.25798 19.024C9.05931 16.8704 9.95174 14.5089 9.95174 12.1678C9.95174 9.82677 9.05931 7.4653 7.25798 5.31164C6.72648 4.67618 6.81076 3.73018 7.44621 3.19869ZM0.533216 6.05168C1.1666 5.51772 2.11293 5.59832 2.64688 6.23171C4.11825 7.97706 4.9475 10.0233 4.9475 12.1678C4.9475 14.3124 4.11825 16.3586 2.64688 18.1039C2.11293 18.7373 1.1666 18.8179 0.533216 18.284C-0.100171 17.75 -0.180775 16.8037 0.353183 16.1703C1.43438 14.8878 1.9475 13.5087 1.9475 12.1678C1.9475 10.827 1.43438 9.44787 0.353183 8.16534C-0.180775 7.53195 -0.100171 6.58563 0.533216 6.05168Z" fill="white"/>
</svg>
