<svg width="23" height="21" viewBox="0 0 23 21" fill="none" xmlns="http://www.w3.org/2000/svg">
<path opacity="0.9" fill-rule="evenodd" clip-rule="evenodd" d="M20.5461 5.34199C20.5461 7.93146 18.5159 10.0307 16.0114 10.0307C14.0079 10.0307 12.3078 8.6872 11.7079 6.82403C11.6324 6.83571 11.5551 6.84178 11.4764 6.84178H1.5C0.671573 6.84178 0 6.1702 0 5.34178C0 4.51335 0.671573 3.84178 1.5 3.84178H11.4764C11.5552 3.84178 11.6325 3.84785 11.708 3.85955C12.308 1.99658 14.008 0.65332 16.0114 0.65332C18.5159 0.65332 20.5461 2.75251 20.5461 5.34199ZM20.5461 14.1571C21.3746 14.1571 22.0461 14.8287 22.0461 15.6571C22.0461 16.4856 21.3746 17.1571 20.5461 17.1571H10.5697C10.491 17.1571 10.4137 17.1511 10.3383 17.1394C9.73835 19.0026 8.03828 20.346 6.03473 20.346C3.53027 20.346 1.5 18.2468 1.5 15.6574C1.5 13.0679 3.53027 10.9687 6.03473 10.9687C8.03813 10.9687 9.7381 12.3119 10.3381 14.1749C10.4136 14.1632 10.491 14.1571 10.5697 14.1571H20.5461Z" fill="white"/>
</svg>
