<svg width="24" height="25" viewBox="0 0 24 25" fill="none" xmlns="http://www.w3.org/2000/svg">
<path opacity="0.9" fill-rule="evenodd" clip-rule="evenodd" d="M6.05185 9.28424C6.05185 5.99908 8.715 3.33594 12.0002 3.33594C15.2853 3.33594 17.9485 5.99909 17.9485 9.28424V17.3671C17.9485 19.1119 16.534 20.5264 14.7891 20.5264H14.4346C13.9546 19.8223 13.1462 19.36 12.2297 19.36H9.28717C7.81441 19.36 6.62051 20.5539 6.62051 22.0267C6.62051 23.4994 7.81441 24.6934 9.28717 24.6934H12.2297C13.1464 24.6934 13.9551 24.2308 14.435 23.5264H14.7891C18.033 23.5264 20.6912 21.0188 20.9309 17.8362H22.3448C23.2589 17.8362 24 17.0952 24 16.1811V11.8724C24 10.9582 23.2589 10.2172 22.3448 10.2172H20.9485V9.28424C20.9485 4.34223 16.9422 0.335938 12.0002 0.335938C7.05815 0.335938 3.05185 4.34222 3.05185 9.28424V10.2172H1.65517C0.741046 10.2172 0 10.9582 0 11.8724V16.1811C0 17.0952 0.741048 17.8362 1.65517 17.8362H4.13796C4.24209 17.8362 4.34398 17.8266 4.44279 17.8082C4.47881 17.8108 4.51518 17.8121 4.55185 17.8121C5.38028 17.8121 6.05185 17.1405 6.05185 16.3121V9.28424Z" fill="white"/>
</svg>
