<svg width="26" height="24" viewBox="0 0 26 24" fill="none" xmlns="http://www.w3.org/2000/svg">
<path d="M14.3847 0.539855C13.9349 0.189965 13.3813 0 12.8115 0C12.2416 0 11.688 0.189965 11.2383 0.539855L0.497213 8.89286C-0.4662 9.64488 0.0641896 11.1887 1.28511 11.1887H2.5624V21.4377C2.5624 22.1173 2.83236 22.769 3.31287 23.2495C3.79339 23.73 4.44512 24 5.12467 24H10.2492V16.3132C10.2492 15.6336 10.5192 14.9819 10.9997 14.5014C11.4802 14.0209 12.1319 13.7509 12.8115 13.7509C13.491 13.7509 14.1428 14.0209 14.6233 14.5014C15.1038 14.9819 15.3738 15.6336 15.3738 16.3132V24H20.4983C21.1778 24 21.8296 23.73 22.3101 23.2495C22.7906 22.769 23.0606 22.1173 23.0606 21.4377V11.1887H24.3379C25.5575 11.1887 26.0904 9.64488 25.1258 8.89414L14.3847 0.539855Z" fill="black"/>
</svg>
