<svg width="22" height="20" viewBox="0 0 22 20" fill="none" xmlns="http://www.w3.org/2000/svg">
<path opacity="0.6" d="M11.9873 0.449879C11.6124 0.158304 11.1511 0 10.6762 0C10.2014 0 9.74003 0.158304 9.36521 0.449879L0.414344 7.41071C-0.3885 8.0374 0.0534914 9.32388 1.07093 9.32388H2.13534V17.8648C2.13534 18.4311 2.3603 18.9742 2.76073 19.3746C3.16116 19.775 3.70426 20 4.27056 20H8.54101V13.5943C8.54101 13.028 8.76597 12.4849 9.16641 12.0845C9.56684 11.6841 10.1099 11.4591 10.6762 11.4591C11.2425 11.4591 11.7856 11.6841 12.1861 12.0845C12.5865 12.4849 12.8115 13.028 12.8115 13.5943V20H17.0819C17.6482 20 18.1913 19.775 18.5917 19.3746C18.9922 18.9742 19.2171 18.4311 19.2171 17.8648V9.32388H20.2815C21.2979 9.32388 21.742 8.0374 20.9381 7.41178L11.9873 0.449879Z" fill="black"/>
</svg>
