<svg width="28" height="24" viewBox="0 0 28 24" fill="none" xmlns="http://www.w3.org/2000/svg">
<path d="M1.74837 24C1.37059 24 1.05415 23.872 0.799039 23.616C0.543928 23.36 0.415928 23.0436 0.415039 22.6667V9.33333C0.415039 8.95555 0.543039 8.63911 0.799039 8.384C1.05504 8.12889 1.37148 8.00089 1.74837 8H6.41504C6.79282 8 7.1097 8.128 7.3657 8.384C7.6217 8.64 7.74926 8.95644 7.74837 9.33333V22.6667C7.74837 23.0444 7.62037 23.3613 7.36437 23.6173C7.10837 23.8733 6.79193 24.0009 6.41504 24H1.74837ZM11.415 24C11.0373 24 10.7208 23.872 10.4657 23.616C10.2106 23.36 10.0826 23.0436 10.0817 22.6667V1.33333C10.0817 0.955555 10.2097 0.639111 10.4657 0.384C10.7217 0.128889 11.0381 0.000888889 11.415 0H16.0817C16.4595 0 16.7764 0.128 17.0324 0.384C17.2884 0.64 17.4159 0.956444 17.415 1.33333V22.6667C17.415 23.0444 17.287 23.3613 17.031 23.6173C16.775 23.8733 16.4586 24.0009 16.0817 24H11.415ZM21.0817 24C20.7039 24 20.3875 23.872 20.1324 23.616C19.8773 23.36 19.7493 23.0436 19.7484 22.6667V12C19.7484 11.6222 19.8764 11.3058 20.1324 11.0507C20.3884 10.7956 20.7048 10.6676 21.0817 10.6667H25.7484C26.1261 10.6667 26.443 10.7947 26.699 11.0507C26.955 11.3067 27.0826 11.6231 27.0817 12V22.6667C27.0817 23.0444 26.9537 23.3613 26.6977 23.6173C26.4417 23.8733 26.1253 24.0009 25.7484 24H21.0817Z" fill="black"/>
</svg>
