<svg width="24" height="20" viewBox="0 0 24 20" fill="none" xmlns="http://www.w3.org/2000/svg">
<path opacity="0.6" d="M1.93826 20C1.62344 20 1.35974 19.8933 1.14715 19.68C0.934556 19.4667 0.827889 19.203 0.827148 18.8889V7.77778C0.827148 7.46296 0.933815 7.19926 1.14715 6.98667C1.36048 6.77407 1.62419 6.66741 1.93826 6.66667H5.82715C6.14196 6.66667 6.40604 6.77333 6.61937 6.98667C6.8327 7.2 6.939 7.4637 6.93826 7.77778V18.8889C6.93826 19.2037 6.83159 19.4678 6.61826 19.6811C6.40492 19.8944 6.14122 20.0007 5.82715 20H1.93826ZM9.99381 20C9.679 20 9.41529 19.8933 9.2027 19.68C8.99011 19.4667 8.88344 19.203 8.8827 18.8889V1.11111C8.8827 0.796296 8.98937 0.532593 9.2027 0.32C9.41603 0.107408 9.67974 0.000740741 9.99381 0H13.8827C14.1975 0 14.4616 0.106667 14.6749 0.32C14.8883 0.533333 14.9946 0.797037 14.9938 1.11111V18.8889C14.9938 19.2037 14.8871 19.4678 14.6738 19.6811C14.4605 19.8944 14.1968 20.0007 13.8827 20H9.99381ZM18.0494 20C17.7346 20 17.4708 19.8933 17.2583 19.68C17.0457 19.4667 16.939 19.203 16.9383 18.8889V10C16.9383 9.68518 17.0449 9.42148 17.2583 9.20889C17.4716 8.99629 17.7353 8.88963 18.0494 8.88889H21.9383C22.2531 8.88889 22.5171 8.99555 22.7305 9.20889C22.9438 9.42222 23.0501 9.68592 23.0494 10V18.8889C23.0494 19.2037 22.9427 19.4678 22.7294 19.6811C22.516 19.8944 22.2523 20.0007 21.9383 20H18.0494Z" fill="black"/>
</svg>
