<svg width="21" height="20" viewBox="0 0 21 20" fill="none" xmlns="http://www.w3.org/2000/svg">
<path opacity="0.6" fill-rule="evenodd" clip-rule="evenodd" d="M7.01927 5.55556C7.01927 4.6715 7.37046 3.82365 7.99558 3.19853C8.6207 2.57341 9.46855 2.22222 10.3526 2.22222C11.2367 2.22222 12.0845 2.57341 12.7096 3.19853C13.3347 3.82365 13.6859 4.6715 13.6859 5.55556H7.01927ZM4.79705 5.55556C4.79705 4.08213 5.38236 2.66905 6.42423 1.62718C7.4661 0.585316 8.87918 0 10.3526 0C11.826 0 13.2391 0.585316 14.281 1.62718C15.3228 2.66905 15.9082 4.08213 15.9082 5.55556H19.2415C19.3958 5.55555 19.5485 5.5877 19.6897 5.64995C19.831 5.71221 19.9577 5.80321 20.0618 5.91716C20.1659 6.0311 20.2452 6.16549 20.2945 6.31175C20.3438 6.45801 20.3621 6.61294 20.3482 6.76667L19.4204 16.9689C19.345 17.7971 18.9627 18.5672 18.3487 19.128C17.7346 19.6888 16.9331 19.9998 16.1015 20H4.60372C3.7721 19.9998 2.97059 19.6888 2.35653 19.128C1.74248 18.5672 1.36023 17.7971 1.28483 16.9689L0.357048 6.76667C0.343157 6.61294 0.361446 6.45801 0.410748 6.31175C0.460051 6.16549 0.539287 6.0311 0.643404 5.91716C0.747522 5.80321 0.874237 5.71221 1.01547 5.64995C1.15671 5.5877 1.30937 5.55555 1.46372 5.55556H4.79705Z" fill="black"/>
</svg>
