<svg width="25" height="25" viewBox="0 0 25 25" fill="none" xmlns="http://www.w3.org/2000/svg">
<path fill-rule="evenodd" clip-rule="evenodd" d="M8.545 7.16032C8.545 6.09945 8.96643 5.08204 9.71657 4.33189C10.4667 3.58175 11.4841 3.16032 12.545 3.16032C13.6059 3.16032 14.6233 3.58175 15.3734 4.33189C16.1236 5.08204 16.545 6.09945 16.545 7.16032H8.545ZM5.87833 7.16032C5.87833 5.39221 6.58071 3.69652 7.83095 2.44627C9.0812 1.19603 10.7769 0.493652 12.545 0.493652C14.3131 0.493652 16.0088 1.19603 17.259 2.44627C18.5093 3.69652 19.2117 5.39221 19.2117 7.16032H23.2117C23.3969 7.16031 23.5801 7.19889 23.7496 7.2736C23.919 7.34831 24.0711 7.45751 24.196 7.59424C24.321 7.73097 24.4161 7.89224 24.4752 8.06775C24.5344 8.24327 24.5563 8.42919 24.5397 8.61365L23.4263 20.8563C23.3359 21.8501 22.8772 22.7743 22.1403 23.4472C21.4034 24.1202 20.4416 24.4934 19.4437 24.4937H5.64633C4.6484 24.4934 3.68658 24.1202 2.94972 23.4472C2.21285 22.7743 1.75415 21.8501 1.66367 20.8563L0.550333 8.61365C0.533663 8.42919 0.55561 8.24327 0.614773 8.06775C0.673937 7.89224 0.769019 7.73097 0.89396 7.59424C1.0189 7.45751 1.17096 7.34831 1.34044 7.2736C1.50992 7.19889 1.69311 7.16031 1.87833 7.16032H5.87833Z" fill="black"/>
</svg>
