<svg width="27" height="25" viewBox="0 0 27 25" fill="none" xmlns="http://www.w3.org/2000/svg">
<path fill-rule="evenodd" clip-rule="evenodd" d="M4.07241 4.88623C3.08222 4.88623 2.13257 5.27801 1.4324 5.9754C0.732222 6.67278 0.338867 7.61863 0.338867 8.60487V20.775C0.338867 21.7612 0.732222 22.7071 1.4324 23.4045C2.13257 24.1018 3.08222 24.4936 4.07241 24.4936H23.0796C24.0698 24.4936 25.0194 24.1018 25.7196 23.4045C26.4198 22.7071 26.8131 21.7612 26.8131 20.775V8.60487C26.8131 7.61863 26.4198 6.67278 25.7196 5.9754C25.0194 5.27801 24.0698 4.88623 23.0796 4.88623H4.07241ZM19.6854 12.9996C19.2353 12.9996 18.8037 13.1777 18.4854 13.4947C18.1672 13.8117 17.9884 14.2416 17.9884 14.6899C17.9884 15.1382 18.1672 15.5682 18.4854 15.8851C18.8037 16.2021 19.2353 16.3802 19.6854 16.3802C20.1355 16.3802 20.5672 16.2021 20.8854 15.8851C21.2037 15.5682 21.3825 15.1382 21.3825 14.6899C21.3825 14.2416 21.2037 13.8117 20.8854 13.4947C20.5672 13.1777 20.1355 12.9996 19.6854 12.9996Z" fill="black"/>
<path d="M19.665 0.584852C20.0669 0.478159 20.4882 0.464885 20.8961 0.546056C21.304 0.627228 21.6878 0.800673 22.0178 1.053C22.3477 1.30534 22.6151 1.62981 22.7992 2.00138C22.9832 2.37294 23.0791 2.78167 23.0795 3.19601H9.50293L19.665 0.584852Z" fill="black"/>
</svg>
