<svg width="23" height="20" viewBox="0 0 23 20" fill="none" xmlns="http://www.w3.org/2000/svg">
<g opacity="0.6">
<path fill-rule="evenodd" clip-rule="evenodd" d="M3.46383 3.6604C2.63866 3.6604 1.84729 3.98689 1.26381 4.56804C0.680335 5.14919 0.352539 5.9374 0.352539 6.75927V16.901C0.352539 17.7229 0.680335 18.5111 1.26381 19.0923C1.84729 19.6734 2.63866 19.9999 3.46383 19.9999H19.3031C20.1283 19.9999 20.9197 19.6734 21.5031 19.0923C22.0866 18.5111 22.4144 17.7229 22.4144 16.901V6.75927C22.4144 5.9374 22.0866 5.14919 21.5031 4.56804C20.9197 3.98689 20.1283 3.6604 19.3031 3.6604H3.46383ZM16.4747 10.4216C16.0996 10.4216 15.7399 10.57 15.4747 10.8341C15.2095 11.0983 15.0605 11.4566 15.0605 11.8301C15.0605 12.2037 15.2095 12.562 15.4747 12.8262C15.7399 13.0903 16.0996 13.2387 16.4747 13.2387C16.8498 13.2387 17.2095 13.0903 17.4747 12.8262C17.7399 12.562 17.8889 12.2037 17.8889 11.8301C17.8889 11.4566 17.7399 11.0983 17.4747 10.8341C17.2095 10.57 16.8498 10.4216 16.4747 10.4216Z" fill="black"/>
<path d="M16.4576 0.0759996C16.7926 -0.0129115 17.1436 -0.0239726 17.4836 0.0436701C17.8235 0.111313 18.1433 0.25585 18.4183 0.466127C18.6933 0.676404 18.916 0.946797 19.0694 1.25644C19.2228 1.56608 19.3028 1.90668 19.303 2.25197H7.98926L16.4576 0.0759996Z" fill="black"/>
</g>
</svg>
