<svg width="22" height="22" viewBox="0 0 22 22" fill="none" xmlns="http://www.w3.org/2000/svg">
<path fill-rule="evenodd" clip-rule="evenodd" d="M9.38949 19.3181C9.23368 18.8537 9.09162 18.348 8.96331 17.801C10.3193 17.9132 11.6822 17.9132 13.0382 17.801C12.9099 18.348 12.7678 18.8537 12.612 19.3181C12.2669 20.3575 11.8834 21.0982 11.5259 21.5525C11.4128 21.7087 11.2732 21.8438 11.1135 21.9518L11.0434 21.989L10.9994 22L10.9581 21.989L10.888 21.9504C10.7918 21.8926 10.6502 21.7742 10.4756 21.5512C10.1181 21.0982 9.73457 20.3575 9.38949 19.3181ZM7.21733 21.346C4.54796 20.3622 2.36081 18.3845 1.11189 15.8254C2.7036 16.5197 4.36387 17.0444 6.06525 17.3907C6.24213 18.3383 6.48094 19.2733 6.78014 20.1896C6.91009 20.5809 7.05594 20.9667 7.21733 21.346ZM20.8901 15.8258C20.8904 15.8256 20.8907 15.8255 20.891 15.8254V15.824C20.8907 15.8246 20.8904 15.8252 20.8901 15.8258ZM20.8901 15.8258C19.3162 16.5139 17.6585 17.0411 15.9349 17.3907C15.758 18.3388 15.5192 19.2742 15.22 20.191C15.088 20.592 14.9423 20.9766 14.7828 21.3447C17.4526 20.3616 19.6404 18.3846 20.8901 15.8258ZM8.28416 9.44567C10.0873 9.68563 11.9142 9.68563 13.7173 9.44567V9.44429C13.7393 9.95276 13.7503 10.4713 13.7503 11C13.7518 12.3323 13.6761 13.6635 13.5235 14.987C11.8471 15.1784 10.1544 15.1784 8.47801 14.987C8.27042 13.1477 8.20561 11.295 8.28416 9.44567ZM0.0684193 12.2225C-0.13318 10.421 0.112379 8.59755 0.78331 6.91388C2.28553 7.77262 3.88968 8.43868 5.55796 8.89636C5.4572 10.7563 5.4912 12.6212 5.65969 14.4762C3.7015 13.9854 1.82008 13.2271 0.0684193 12.2225ZM16.4435 8.89636C18.1118 8.43868 19.716 7.77262 21.2182 6.91388L21.2168 6.91526C21.8875 8.5985 22.1331 10.4215 21.9317 12.2225C20.1805 13.227 18.2995 13.9853 16.3418 14.4762C16.5103 12.6212 16.5443 10.7563 16.4435 8.89636ZM11.0076 0L11.0227 0.00275298L11.1149 0.0481849C11.2746 0.156128 11.4142 0.291253 11.5273 0.447433C11.8847 0.900374 12.2669 1.64242 12.6134 2.68047C12.9832 3.79286 13.2843 5.15719 13.4836 6.69912C11.8364 6.93051 10.1651 6.93051 8.51788 6.69912C8.71722 5.15857 9.01692 3.79286 9.38812 2.68047C9.73456 1.64242 10.1168 0.901751 10.4742 0.447433C10.5974 0.279118 10.7514 0.135704 10.9279 0.0247803L10.9801 0.00412965L11.0076 0ZM2.11686 4.506C3.39917 2.74542 5.1742 1.40533 7.21733 0.655318C7.05877 1.02244 6.91304 1.40701 6.78014 1.80901C6.36771 3.04668 6.04188 4.50462 5.82191 6.10713C4.51724 5.71201 3.2758 5.17233 2.11686 4.506ZM15.2214 1.80901C15.0875 1.40701 14.9418 1.02244 14.7842 0.655318C16.8273 1.40533 18.6023 2.74542 19.8846 4.506C18.7139 5.17807 17.471 5.7152 16.1796 6.10713C15.9596 4.50462 15.6338 3.04806 15.2214 1.80901Z" fill="url(#paint0_linear_919_12671)"/>
<defs>
<linearGradient id="paint0_linear_919_12671" x1="0" y1="11" x2="22" y2="11" gradientUnits="userSpaceOnUse">
<stop stop-color="#E2C1F9"/>
<stop offset="0.33" stop-color="#FEBD8E"/>
<stop offset="0.66" stop-color="#FBFFE4"/>
<stop offset="1" stop-color="#B6D0F7"/>
</linearGradient>
</defs>
</svg>
