<svg width="22" height="25" viewBox="0 0 22 25" fill="none" xmlns="http://www.w3.org/2000/svg">
<path opacity="0.9" fill-rule="evenodd" clip-rule="evenodd" d="M15.0633 0.38181C15.6808 -0.17037 16.6291 -0.117362 17.1813 0.500206C20.2873 3.97409 21.9952 7.99449 21.9993 12.1645C22.0034 16.3347 20.3034 20.3569 17.2038 23.8338C16.6525 24.4522 15.7043 24.5065 15.086 23.9553C14.4676 23.404 14.4132 22.4558 14.9645 21.8374C17.6586 18.8154 19.0026 15.4818 18.9993 12.1675C18.996 8.85313 17.6454 5.52015 14.9449 2.49982C14.3927 1.88226 14.4457 0.933989 15.0633 0.38181ZM7.79935 3.22477C8.42038 2.6765 9.3683 2.73549 9.91657 3.35652C12.2227 5.96874 13.5042 9.00409 13.5042 12.1678C13.5042 15.3315 12.2227 18.3669 9.91657 20.9791C9.3683 21.6001 8.42038 21.6591 7.79935 21.1109C7.17831 20.5626 7.11932 19.6147 7.66759 18.9936C9.57253 16.8359 10.5042 14.4843 10.5042 12.1678C10.5042 9.85135 9.57253 7.49974 7.66759 5.342C7.11932 4.72096 7.17831 3.77305 7.79935 3.22477ZM0.502888 6.07791C1.12178 5.52721 2.06991 5.58249 2.62061 6.20138C4.16986 7.94246 5.0556 9.99849 5.0556 12.1678C5.0556 14.3371 4.16986 16.3932 2.62061 18.1342C2.06991 18.7531 1.12178 18.8084 0.502888 18.2577C-0.116 17.707 -0.171279 16.7589 0.37942 16.14C1.52443 14.8532 2.0556 13.4839 2.0556 12.1678C2.0556 10.8517 1.52443 9.48243 0.37942 8.19564C-0.171279 7.57675 -0.116 6.62861 0.502888 6.07791Z" fill="url(#paint0_linear_919_10518)"/>
<defs>
<linearGradient id="paint0_linear_919_10518" x1="0" y1="12.1678" x2="21.9993" y2="12.1678" gradientUnits="userSpaceOnUse">
<stop stop-color="#B6D0F7"/>
<stop offset="0.14" stop-color="#EEF4E1"/>
<stop offset="0.28" stop-color="#FAFCFE"/>
<stop offset="0.42" stop-color="#E2C1F9"/>
<stop offset="0.57" stop-color="#BFD1F9"/>
<stop offset="0.71" stop-color="#FAFCFE"/>
<stop offset="0.85" stop-color="#BAE4E2"/>
<stop offset="1" stop-color="#8C6BE3"/>
</linearGradient>
</defs>
</svg>
