<svg width="22" height="21" viewBox="0 0 22 21" fill="none" xmlns="http://www.w3.org/2000/svg">
<path opacity="0.9" fill-rule="evenodd" clip-rule="evenodd" d="M20.5005 5.35426C20.5005 7.93758 18.4751 10.0318 15.9766 10.0318C13.9791 10.0318 12.2839 8.69321 11.6844 6.8363C11.6089 6.84802 11.5315 6.8541 11.4527 6.8541H1.5C0.671573 6.8541 0 6.18252 0 5.3541C0 4.52567 0.671573 3.8541 1.5 3.8541H11.4527C11.5315 3.8541 11.609 3.86018 11.6845 3.87191C12.2841 2.01517 13.9792 0.676758 15.9766 0.676758C18.4751 0.676758 20.5005 2.77095 20.5005 5.35426ZM20.5008 14.145C21.3292 14.145 22.0008 14.8166 22.0008 15.645C22.0008 16.4735 21.3292 17.145 20.5008 17.145H10.5481C10.4691 17.145 10.3916 17.1389 10.3159 17.1272C9.7164 18.9841 8.02125 20.3227 6.0237 20.3227C3.5252 20.3227 1.49977 18.2285 1.49977 15.6452C1.49977 13.0619 3.5252 10.9677 6.0237 10.9677C8.02113 10.9677 9.71622 12.3061 10.3158 14.1629C10.3915 14.1511 10.4691 14.145 10.5481 14.145H20.5008Z" fill="url(#paint0_linear_919_10507)"/>
<defs>
<linearGradient id="paint0_linear_919_10507" x1="0" y1="10.4997" x2="22.0008" y2="10.4997" gradientUnits="userSpaceOnUse">
<stop stop-color="#B6D0F7"/>
<stop offset="0.14" stop-color="#EEF4E1"/>
<stop offset="0.28" stop-color="#FAFCFE"/>
<stop offset="0.42" stop-color="#E2C1F9"/>
<stop offset="0.57" stop-color="#BFD1F9"/>
<stop offset="0.71" stop-color="#FAFCFE"/>
<stop offset="0.85" stop-color="#BAE4E2"/>
<stop offset="1" stop-color="#8C6BE3"/>
</linearGradient>
</defs>
</svg>
