<svg width="22" height="23" viewBox="0 0 22 23" fill="none" xmlns="http://www.w3.org/2000/svg">
<path opacity="0.9" fill-rule="evenodd" clip-rule="evenodd" d="M5.67245 8.66356C5.67245 5.7212 8.05771 3.33594 11.0001 3.33594C13.9424 3.33594 16.3277 5.7212 16.3277 8.66356V16.0728C16.3277 17.6033 15.0871 18.8439 13.5566 18.8439H13.1408C12.6935 18.2693 11.9953 17.8997 11.2107 17.8997H8.51335C7.16332 17.8997 6.0689 18.9941 6.0689 20.3442C6.0689 21.6942 7.16331 22.7886 8.51335 22.7886H11.2107C11.9955 22.7886 12.6939 22.4188 13.1412 21.8439H13.5566C16.5994 21.8439 19.0921 19.4891 19.312 16.5025H20.345C21.2591 16.5025 22.0002 15.7615 22.0002 14.8474V11.1736C22.0002 10.2595 21.2591 9.51841 20.345 9.51841H19.3277V8.66356C19.3277 4.06434 15.5993 0.335938 11.0001 0.335938C6.40086 0.335938 2.67245 4.06434 2.67245 8.66356V9.51841H1.65517C0.741046 9.51841 0 10.2595 0 11.1736V14.8474C0 15.7615 0.741045 16.5025 1.65517 16.5025H3.62445C3.7942 16.5692 3.97905 16.6058 4.17245 16.6058C5.00088 16.6058 5.67245 15.9342 5.67245 15.1058V8.66356Z" fill="url(#paint0_linear_919_10526)"/>
<defs>
<linearGradient id="paint0_linear_919_10526" x1="0" y1="11.5623" x2="22.0002" y2="11.5623" gradientUnits="userSpaceOnUse">
<stop stop-color="#B6D0F7"/>
<stop offset="0.14" stop-color="#EEF4E1"/>
<stop offset="0.28" stop-color="#FAFCFE"/>
<stop offset="0.42" stop-color="#E2C1F9"/>
<stop offset="0.57" stop-color="#BFD1F9"/>
<stop offset="0.71" stop-color="#FAFCFE"/>
<stop offset="0.85" stop-color="#BAE4E2"/>
<stop offset="1" stop-color="#8C6BE3"/>
</linearGradient>
</defs>
</svg>
