<svg width="46" height="45" viewBox="0 0 46 45" fill="none" xmlns="http://www.w3.org/2000/svg">
<path opacity="0.9" fill-rule="evenodd" clip-rule="evenodd" d="M0.25 22.5C0.25 10.073 10.323 0 22.75 0C35.177 0 45.25 10.073 45.25 22.5C45.25 34.927 35.177 45 22.75 45C10.323 45 0.25 34.927 0.25 22.5ZM11.4283 25.9475C11.4932 25.8826 11.5813 25.8462 11.6731 25.8462C11.7649 25.8462 11.8529 25.8826 11.9178 25.9475C11.9828 26.0125 12.0192 26.1005 12.0192 26.1923C12.0192 26.2841 11.9828 26.3722 11.9178 26.4371C11.8529 26.502 11.7649 26.5385 11.6731 26.5385C11.5813 26.5385 11.4932 26.502 11.4283 26.4371C11.3634 26.3722 11.3269 26.2841 11.3269 26.1923C11.3269 26.1005 11.3634 26.0125 11.4283 25.9475ZM11.6731 22.8462C10.7856 22.8462 9.93451 23.1987 9.30699 23.8262C8.67946 24.4537 8.32692 25.3049 8.32692 26.1923C8.32692 27.0798 8.67946 27.9309 9.30699 28.5584C9.93452 29.1859 10.7856 29.5385 11.6731 29.5385C12.5605 29.5385 13.4116 29.1859 14.0392 28.5584C14.6667 27.9309 15.0192 27.0798 15.0192 26.1923C15.0192 25.3049 14.6667 24.4537 14.0392 23.8262C13.4116 23.1987 12.5605 22.8462 11.6731 22.8462ZM33.5822 25.9475C33.6471 25.8826 33.7351 25.8462 33.8269 25.8462C33.9187 25.8462 34.0068 25.8826 34.0717 25.9475C34.1366 26.0125 34.1731 26.1005 34.1731 26.1923C34.1731 26.2841 34.1366 26.3722 34.0717 26.4371C34.0068 26.502 33.9187 26.5385 33.8269 26.5385C33.7351 26.5385 33.6471 26.502 33.5822 26.4371C33.5172 26.3722 33.4808 26.2841 33.4808 26.1923C33.4808 26.1005 33.5172 26.0125 33.5822 25.9475ZM33.8269 22.8462C32.9395 22.8462 32.0884 23.1987 31.4608 23.8262C30.8333 24.4537 30.4808 25.3049 30.4808 26.1923C30.4808 27.0798 30.8333 27.9309 31.4608 28.5584C32.0884 29.1859 32.9395 29.5385 33.8269 29.5385C34.7144 29.5385 35.5655 29.1859 36.193 28.5584C36.8205 27.9309 37.1731 27.0798 37.1731 26.1923C37.1731 25.3049 36.8205 24.4537 36.193 23.8262C35.5655 23.1987 34.7144 22.8462 33.8269 22.8462ZM17.0748 36.4845C17.0744 36.4841 17.074 36.4837 18.1346 35.4231L17.074 36.4837C16.4882 35.8979 16.4882 34.9482 17.074 34.3624C17.6575 33.7789 18.6022 33.7766 19.1885 34.3557L19.1903 34.3575L19.1905 34.3576C19.1955 34.3624 19.207 34.3732 19.2248 34.3892C19.2604 34.4214 19.3205 34.4739 19.4034 34.5402C19.5701 34.6736 19.8231 34.8581 20.1481 35.0438C20.8041 35.4187 21.7011 35.7692 22.75 35.7692C23.7989 35.7692 24.6959 35.4187 25.3519 35.0438C25.6769 34.8581 25.9299 34.6736 26.0966 34.5402C26.1795 34.4739 26.2396 34.4214 26.2752 34.3892C26.293 34.3732 26.3045 34.3624 26.3095 34.3576L26.3097 34.3575L26.3115 34.3557C26.8978 33.7766 27.8425 33.7789 28.426 34.3624C29.0118 34.9482 29.0118 35.8979 28.426 36.4837L27.3654 35.4231C28.426 36.4837 28.4256 36.4841 28.4252 36.4845L28.4244 36.4854L28.4226 36.4872L28.4184 36.4913L28.4079 36.5016L28.3785 36.53C28.3551 36.5523 28.3242 36.5811 28.2861 36.6156C28.2099 36.6844 28.1042 36.7761 27.9707 36.8828C27.7047 37.0956 27.3231 37.3727 26.8404 37.6485C25.8811 38.1967 24.4703 38.7692 22.75 38.7692C21.0297 38.7692 19.6189 38.1967 18.6596 37.6485C18.1769 37.3727 17.7953 37.0956 17.5293 36.8828C17.3958 36.7761 17.2901 36.6844 17.2139 36.6156C17.1758 36.5811 17.1449 36.5523 17.1215 36.53L17.0921 36.5016L17.0816 36.4913L17.0774 36.4872L17.0756 36.4854L17.0748 36.4845Z" fill="url(#paint0_linear_913_8031)"/>
<defs>
<linearGradient id="paint0_linear_913_8031" x1="0.25" y1="22.5" x2="45.25" y2="22.5" gradientUnits="userSpaceOnUse">
<stop stop-color="#B6D0F7"/>
<stop offset="0.14" stop-color="#EEF4E1"/>
<stop offset="0.28" stop-color="#FAFCFE"/>
<stop offset="0.42" stop-color="#E2C1F9"/>
<stop offset="0.57" stop-color="#BFD1F9"/>
<stop offset="0.71" stop-color="#FAFCFE"/>
<stop offset="0.85" stop-color="#BAE4E2"/>
<stop offset="1" stop-color="#8C6BE3"/>
</linearGradient>
</defs>
</svg>
