<svg width="25" height="24" viewBox="0 0 25 24" fill="none" xmlns="http://www.w3.org/2000/svg">
<g clip-path="url(#clip0_888_56076)">
<rect x="20.5" y="20" width="4" height="4" fill="#73ADEE"/>
<rect x="16.5" y="20" width="4" height="4" fill="white"/>
<rect x="12.5" y="20" width="4" height="4" fill="#73ADEE"/>
<rect x="8.5" y="20" width="4" height="4" fill="#C2D1EF"/>
<rect x="4.5" y="20" width="4" height="4" fill="#B1ED6A"/>
<rect x="0.5" y="20" width="4" height="4" fill="#B1ED6A"/>
<rect x="20.5" y="16" width="4" height="4" fill="#C2D1EF"/>
<rect x="16.5" y="16" width="4" height="4" fill="#C2D1EF"/>
<rect x="12.5" y="16" width="4" height="4" fill="white"/>
<rect x="8.5" y="16" width="4" height="4" fill="#73ADEE"/>
<rect x="4.5" y="16" width="4" height="4" fill="white"/>
<rect x="0.5" y="16" width="4" height="4" fill="#C2D1EF"/>
<rect x="20.5" y="12" width="4" height="4" fill="#B1ED6A"/>
<rect x="16.5" y="12" width="4" height="4" fill="#B1ED6A"/>
<rect x="12.5" y="12" width="4" height="4" fill="#73ADEE"/>
<rect x="8.5" y="12" width="4" height="4" fill="#C2D1EF"/>
<rect x="4.5" y="12" width="4" height="4" fill="#73ADEE"/>
<rect x="0.5" y="12" width="4" height="4" fill="#C2D1EF"/>
<rect x="20.5" y="8" width="4" height="4" fill="white"/>
<rect x="16.5" y="8" width="4" height="4" fill="#C2D1EF"/>
<rect x="12.5" y="8" width="4" height="4" fill="white"/>
<rect x="8.5" y="8" width="4" height="4" fill="white"/>
<rect x="4.5" y="8" width="4" height="4" fill="#C2D1EF"/>
<rect x="0.5" y="8" width="4" height="4" fill="white"/>
<rect x="20.5" y="4" width="4" height="4" fill="#B1ED6A"/>
<rect x="16.5" y="4" width="4" height="4" fill="white"/>
<rect x="12.5" y="4" width="4" height="4" fill="white"/>
<rect x="8.5" y="4" width="4" height="4" fill="#C2D1EF"/>
<rect x="4.5" y="4" width="4" height="4" fill="#B1ED6A"/>
<rect x="0.5" y="4" width="4" height="4" fill="#73ADEE"/>
<rect x="20.5" width="4" height="4" fill="#73ADEE"/>
<rect x="16.5" width="4" height="4" fill="#73ADEE"/>
<rect x="12.5" width="4" height="4" fill="#C2D1EF"/>
<rect x="8.5" width="4" height="4" fill="#73ADEE"/>
<rect x="4.5" width="4" height="4" fill="#B1ED6A"/>
<rect x="0.5" width="4" height="4" fill="#73ADEE"/>
</g>
<defs>
<clipPath id="clip0_888_56076">
<rect x="0.5" width="24" height="24" rx="12" fill="white"/>
</clipPath>
</defs>
</svg>
