<svg width="44" height="44" viewBox="0 0 44 44" fill="none" xmlns="http://www.w3.org/2000/svg">
<path opacity="0.8" d="M43.4313 5.76066C38.6721 2.15406 31.3461 0 23.833 0C14.5428 0 6.97192 3.24347 3.06545 8.89959C1.23052 11.5543 0.215386 14.7015 0.0475733 18.2476C-0.100982 21.4058 0.429967 24.8996 1.62391 28.6575C5.70094 16.4319 17.0902 6.86107 30.2209 6.86107C30.2209 6.86107 17.9348 10.0935 10.2099 20.11C8.44606 22.3806 7.03111 24.9017 6.01181 27.5901C3.83101 32.7861 2.70869 38.3649 2.71057 44H8.21264C8.21264 44 7.37632 38.7455 8.82887 32.7043C10.9773 33.0085 13.1433 33.1711 15.313 33.1912C20.3722 33.1912 23.9678 32.0963 26.6335 29.7469C29.0214 27.6424 30.3392 24.8116 31.734 21.8184C33.8633 17.2435 36.2759 12.0605 43.2828 8.05777C43.4805 7.94501 43.6471 7.78496 43.7677 7.59196C43.8883 7.39897 43.9592 7.17906 43.9739 6.95195C43.9886 6.72484 43.9467 6.49763 43.8521 6.29068C43.7574 6.08373 43.6128 5.90351 43.4313 5.76616V5.76066Z" fill="url(#paint0_linear_879_50680)"/>
<defs>
<linearGradient id="paint0_linear_879_50680" x1="0.0231934" y1="22" x2="43.9768" y2="22" gradientUnits="userSpaceOnUse">
<stop stop-color="#B6D0F7"/>
<stop offset="0.14" stop-color="#EEF4E1"/>
<stop offset="0.28" stop-color="#FAFCFE"/>
<stop offset="0.42" stop-color="#E2C1F9"/>
<stop offset="0.57" stop-color="#BFD1F9"/>
<stop offset="0.71" stop-color="#FAFCFE"/>
<stop offset="0.85" stop-color="#BAE4E2"/>
<stop offset="1" stop-color="#8C6BE3"/>
</linearGradient>
</defs>
</svg>
