<svg width="33" height="44" viewBox="0 0 33 44" fill="none" xmlns="http://www.w3.org/2000/svg">
<path d="M17.4835 0.452327C17.3621 0.31047 17.2113 0.196589 17.0417 0.118509C16.872 0.040429 16.6875 0 16.5007 0C16.314 0 16.1294 0.040429 15.9598 0.118509C15.7901 0.196589 15.6394 0.31047 15.5179 0.452327C12.1042 4.44502 0.973633 18.2486 0.973633 28.4734C0.973633 38.0018 6.97292 44 16.5002 44C26.0275 44 32.0267 38.0018 32.0267 28.4734C32.0267 18.2486 20.8961 4.44502 17.4835 0.452327ZM18.2254 38.3932C18.0181 38.3936 17.8138 38.3443 17.6296 38.2493C17.4454 38.1544 17.2867 38.0166 17.1669 37.8475C17.0471 37.6784 16.9696 37.483 16.941 37.2778C16.9124 37.0725 16.9336 36.8634 17.0026 36.668C17.0909 36.4131 17.2573 36.1925 17.4782 36.0376C17.6991 35.8827 17.9632 35.8015 18.2329 35.8054C19.9456 35.8017 21.587 35.1197 22.798 33.9087C24.0091 32.6977 24.6911 31.0562 24.6948 29.3436C24.6908 29.0738 24.7721 28.8097 24.9269 28.5888C25.0818 28.3679 25.3024 28.2015 25.5573 28.1133C25.7527 28.0442 25.9618 28.0231 26.1671 28.0517C26.3724 28.0803 26.5677 28.1577 26.7368 28.2776C26.9059 28.3974 27.0437 28.5561 27.1387 28.7403C27.2336 28.9245 27.283 29.1288 27.2825 29.336C27.2799 31.7374 26.3249 34.0396 24.6269 35.7376C22.9289 37.4356 20.6267 38.3906 18.2254 38.3932Z" fill="white" fill-opacity="0.4"/>
</svg>
