<svg width="44" height="44" viewBox="0 0 44 44" fill="none" xmlns="http://www.w3.org/2000/svg">
<path opacity="0.8" d="M40.592 15.1492C41.8038 17.1887 42.5991 19.4483 42.932 21.7971C43.2649 24.146 43.1288 26.5376 42.5315 28.8335C41.9342 31.1294 40.8876 33.2841 39.4522 35.173C38.0168 37.0618 36.2212 38.6473 34.1691 39.8377C32.1171 41.0281 29.8493 41.7998 27.4971 42.1082C25.1449 42.4166 22.7549 42.2555 20.4653 41.6343C18.1758 41.0131 16.0321 39.944 14.1583 38.489C12.2846 37.034 10.7179 35.2219 9.54896 33.1576L1.20242 18.7015C0.805395 17.955 0.713642 17.0836 0.946495 16.2708C1.17935 15.458 1.71862 14.7674 2.45069 14.3443C3.18275 13.9213 4.05044 13.799 4.87091 14.0032C5.69138 14.2073 6.40056 14.722 6.84903 15.4388L10.6338 21.9887C10.7409 22.1743 10.8836 22.337 11.0535 22.4675C11.2235 22.5979 11.4175 22.6936 11.6245 22.7491C11.8315 22.8046 12.0474 22.8188 12.2598 22.7908C12.4722 22.7629 12.6771 22.6934 12.8627 22.5862C13.0483 22.4791 13.2109 22.3365 13.3414 22.1665C13.4719 21.9965 13.5676 21.8025 13.6231 21.5956C13.6785 21.3886 13.6927 21.1727 13.6648 20.9603C13.6368 20.7478 13.5673 20.543 13.4602 20.3574L5.4542 6.49066C5.05717 5.74418 4.96542 4.87274 5.19828 4.05995C5.43113 3.24715 5.9704 2.55649 6.70247 2.13348C7.43453 1.71048 8.30222 1.58816 9.12269 1.79232C9.94316 1.99647 10.6523 2.51115 11.1008 3.2279L19.117 17.0946C19.2209 17.2861 19.3622 17.4547 19.5324 17.5907C19.7026 17.7267 19.8983 17.8272 20.108 17.8863C20.3177 17.9454 20.5371 17.9619 20.7532 17.9349C20.9694 17.9078 21.178 17.8377 21.3666 17.7288C21.5553 17.6198 21.7202 17.4742 21.8516 17.3004C21.983 17.1267 22.0784 16.9284 22.1319 16.7173C22.1855 16.5061 22.1962 16.2863 22.1635 16.071C22.1308 15.8556 22.0552 15.6489 21.9413 15.4632L15.8236 4.85928C15.4036 4.11069 15.2955 3.22675 15.5228 2.39901C15.75 1.57127 16.2943 0.866421 17.0376 0.437207C17.781 0.00799211 18.6635 -0.111007 19.494 0.105998C20.3245 0.323003 21.036 0.858529 21.4743 1.59652L29.7209 15.8956C27.8974 17.7332 26.8717 20.2156 26.866 22.8044C26.8601 24.9233 27.5476 26.9859 28.8237 28.6774C28.9509 28.8524 29.1117 29.0004 29.2967 29.1127C29.4817 29.225 29.6872 29.2994 29.9012 29.3315C30.1152 29.3636 30.3335 29.3528 30.5433 29.2997C30.7531 29.2467 30.9502 29.1524 31.1232 29.0224C31.2962 28.8924 31.4416 28.7293 31.551 28.5425C31.6604 28.3558 31.7315 28.1492 31.7602 27.9347C31.7889 27.7202 31.7747 27.5021 31.7183 27.2932C31.6619 27.0843 31.5646 26.8886 31.4319 26.7177C30.9158 26.0287 30.5412 25.2445 30.3296 24.4101C30.118 23.5757 30.0735 22.7077 30.1988 21.856C30.3241 21.0044 30.6167 20.186 31.0596 19.4479C31.5026 18.7098 32.0872 18.0667 32.7798 17.5555C33.1018 17.3172 33.325 16.9687 33.4066 16.5764C33.4882 16.1841 33.4226 15.7756 33.2223 15.4286L30.8853 11.3848C30.4653 10.6362 30.3572 9.75226 30.5845 8.92453C30.8117 8.09679 31.356 7.39193 32.0993 6.96272C32.8427 6.5335 33.7252 6.41451 34.5557 6.63151C35.3862 6.84852 36.0977 7.38404 36.536 8.12204L40.592 15.1492ZM34.6028 3.52563C35.7459 3.82683 36.8177 4.35223 37.7559 5.07129C38.6941 5.79035 39.48 6.68872 40.068 7.71419L40.1353 7.83043C40.3516 8.20523 40.708 8.47873 41.1259 8.59079C41.3329 8.64627 41.5488 8.66044 41.7612 8.6325C41.9737 8.60455 42.1785 8.53504 42.3641 8.42792C42.5497 8.3208 42.7124 8.17818 42.8428 8.0082C42.9733 7.83821 43.069 7.6442 43.1245 7.43723C43.18 7.23026 43.1941 7.01439 43.1662 6.80194C43.1383 6.58949 43.0687 6.38463 42.9616 6.19905L42.8943 6.08281C42.0926 4.68487 41.021 3.4602 39.7418 2.48C38.4626 1.49979 37.0014 0.783578 35.443 0.372989C35.0261 0.265192 34.5836 0.32657 34.2118 0.543741C33.84 0.760913 33.5691 1.11627 33.4582 1.53232C33.3473 1.94838 33.4055 2.3914 33.6199 2.7648C33.8343 3.13819 34.1876 3.41168 34.6028 3.52563ZM12.098 41.1003C9.98412 39.432 8.20872 37.3749 6.86738 35.0398C6.76026 34.8542 6.61764 34.6915 6.44766 34.5611C6.27768 34.4306 6.08366 34.3349 5.87669 34.2794C5.66972 34.2239 5.45385 34.2098 5.2414 34.2377C5.02896 34.2657 4.82409 34.3352 4.63851 34.4423C4.45293 34.5494 4.29026 34.692 4.1598 34.862C4.02934 35.032 3.93363 35.226 3.87815 35.433C3.82267 35.6399 3.8085 35.8558 3.83644 36.0683C3.86438 36.2807 3.9339 36.4856 4.04102 36.6712C5.58946 39.3645 7.63822 41.7372 10.0771 43.6616C10.4173 43.9233 10.8469 44.0404 11.2729 43.9876C11.6988 43.9347 12.0868 43.7161 12.3526 43.3791C12.6185 43.0422 12.7408 42.614 12.6932 42.1875C12.6455 41.7609 12.4317 41.3703 12.098 41.1003Z" fill="url(#paint0_linear_867_50652)"/>
<defs>
<linearGradient id="paint0_linear_867_50652" x1="0.820312" y1="22" x2="43.1801" y2="22" gradientUnits="userSpaceOnUse">
<stop stop-color="#B6D0F7"/>
<stop offset="0.14" stop-color="#EEF4E1"/>
<stop offset="0.28" stop-color="#FAFCFE"/>
<stop offset="0.42" stop-color="#E2C1F9"/>
<stop offset="0.57" stop-color="#BFD1F9"/>
<stop offset="0.71" stop-color="#FAFCFE"/>
<stop offset="0.85" stop-color="#BAE4E2"/>
<stop offset="1" stop-color="#8C6BE3"/>
</linearGradient>
</defs>
</svg>
