<svg width="20" height="21" viewBox="0 0 20 21" fill="none" xmlns="http://www.w3.org/2000/svg">
<path opacity="0.9" d="M10 0.5C8.02219 0.5 6.08879 1.08649 4.4443 2.1853C2.79981 3.28412 1.51809 4.8459 0.761209 6.67316C0.00433282 8.50043 -0.1937 10.5111 0.192152 12.4509C0.578004 14.3907 1.53041 16.1725 2.92894 17.5711C4.32746 18.9696 6.10929 19.922 8.0491 20.3078C9.98891 20.6937 11.9996 20.4957 13.8268 19.7388C15.6541 18.9819 17.2159 17.7002 18.3147 16.0557C19.4135 14.4112 20 12.4778 20 10.5C19.9974 7.84863 18.943 5.30659 17.0682 3.43178C15.1934 1.55698 12.6514 0.502583 10 0.5ZM10.7317 16.1098V16.8805C10.7317 17.0745 10.6546 17.2607 10.5174 17.3979C10.3802 17.5351 10.1941 17.6122 10 17.6122C9.80594 17.6122 9.61983 17.5351 9.48261 17.3979C9.34539 17.2607 9.2683 17.0745 9.2683 16.8805V16.1098C8.63252 16.0147 8.03694 15.7406 7.55122 15.3195C7.20451 15.0288 6.91902 14.6722 6.71134 14.2702C6.50366 13.8682 6.37794 13.429 6.34147 12.978C6.32912 12.8339 6.35978 12.6893 6.42958 12.5626C6.49937 12.4359 6.60517 12.3327 6.73359 12.2661C6.86202 12.1995 7.00731 12.1724 7.15111 12.1883C7.2949 12.2043 7.43074 12.2625 7.54147 12.3556C7.69082 12.4799 7.78541 12.6579 7.80488 12.8512C7.82354 13.1121 7.89448 13.3667 8.01347 13.5996C8.13247 13.8326 8.2971 14.0393 8.49756 14.2073C8.90071 14.5519 9.4218 14.7268 9.95122 14.6951C11.4732 14.6951 12.1951 14.1098 12.1951 12.9195C12.1951 12.1293 11.5024 11.2805 10 11.2805C6.81952 11.2805 6.34147 9.32927 6.34147 8.20732C6.36747 7.50766 6.60792 6.83291 7.03023 6.27447C7.45254 5.71604 8.03631 5.30093 8.70244 5.08536C8.88781 5.02813 9.07643 4.98585 9.2683 4.95854V4.19756C9.2683 4.0035 9.34539 3.81739 9.48261 3.68017C9.61983 3.54294 9.80594 3.46585 10 3.46585C10.1941 3.46585 10.3802 3.54294 10.5174 3.68017C10.6546 3.81739 10.7317 4.0035 10.7317 4.19756V4.9878C11.4976 5.11555 12.1999 5.49283 12.7292 6.06096C13.2585 6.6291 13.5852 7.35623 13.6585 8.12927C13.6666 8.31589 13.6029 8.49852 13.4806 8.63972C13.3583 8.78092 13.1867 8.87 13.0008 8.88871C12.8149 8.90742 12.629 8.85434 12.481 8.74035C12.333 8.62636 12.2342 8.46009 12.2049 8.27561C12.1506 7.74614 11.8962 7.25737 11.4937 6.90921C11.0911 6.56104 10.5708 6.37977 10.039 6.40244H9.86342C9.62577 6.40056 9.38912 6.43343 9.16098 6.5C8.91135 6.58142 8.68072 6.71239 8.48291 6.88505C8.28509 7.05772 8.12416 7.26854 8.00976 7.50488C7.89244 7.73871 7.82594 7.99473 7.81464 8.2561C7.81464 9.0561 8.07805 9.83658 10.0098 9.83658C12.4098 9.83658 13.6683 11.3976 13.6683 12.939C13.6813 13.3407 13.6143 13.741 13.4713 14.1166C13.3284 14.4922 13.1122 14.8357 12.8353 15.1271C12.5585 15.4184 12.2265 15.6519 11.8587 15.8139C11.4909 15.9759 11.0945 16.0632 10.6927 16.0707L10.7317 16.1098Z" fill="white"/>
</svg>
