<svg width="20" height="21" viewBox="0 0 20 21" fill="none" xmlns="http://www.w3.org/2000/svg">
<path fill-rule="evenodd" clip-rule="evenodd" d="M8.5359 18.0619C8.39426 17.6397 8.26511 17.18 8.14846 16.6827C9.38117 16.7847 10.6202 16.7847 11.8529 16.6827C11.7362 17.18 11.6071 17.6397 11.4655 18.0619C11.1518 19.0069 10.8031 19.6802 10.4781 20.0932C10.3752 20.2352 10.2484 20.358 10.1032 20.4562L10.0394 20.49L9.99943 20.5L9.96193 20.49L9.8982 20.4549C9.81071 20.4024 9.68198 20.2947 9.52325 20.092C9.1983 19.6802 8.84961 19.0069 8.5359 18.0619ZM6.56121 19.9055C4.13451 19.0111 2.14619 17.2132 1.0108 14.8867C2.45782 15.5179 3.96715 15.9949 5.51386 16.3097C5.67466 17.1712 5.89177 18.0212 6.16377 18.8542C6.2819 19.2099 6.41449 19.5606 6.56121 19.9055ZM18.991 14.8871C18.9913 14.8869 18.9915 14.8868 18.9918 14.8867V14.8855C18.9915 14.886 18.9913 14.8865 18.991 14.8871ZM18.991 14.8871C17.5602 15.5127 16.0532 15.9919 14.4862 16.3097C14.3255 17.1716 14.1084 18.022 13.8363 18.8554C13.7164 19.22 13.5839 19.5696 13.4389 19.9042C15.866 19.0106 17.8549 17.2133 18.991 14.8871ZM7.53106 9.08697C9.17027 9.30512 10.8311 9.30512 12.4703 9.08697V9.08572C12.4903 9.54796 12.5003 10.0194 12.5003 10.5C12.5017 11.7111 12.4328 12.9214 12.2941 14.1245C10.7701 14.2985 9.23128 14.2985 7.70728 14.1245C7.51856 12.4524 7.45964 10.7682 7.53106 9.08697ZM0.0621994 11.6114C-0.121073 9.97365 0.102163 8.31595 0.7121 6.78535C2.07776 7.56602 3.53607 8.17153 5.05269 8.5876C4.96109 10.2785 4.992 11.9738 5.14517 13.6602C3.365 13.214 1.65462 12.5246 0.0621994 11.6114ZM14.9487 8.5876C16.4653 8.17153 17.9236 7.56602 19.2893 6.78535L19.288 6.7866C19.8977 8.31682 20.121 9.97407 19.9379 11.6114C18.3459 12.5245 16.6359 13.2139 14.8562 13.6602C15.0094 11.9738 15.0403 10.2785 14.9487 8.5876ZM10.0069 0.5L10.0207 0.502503L10.1044 0.543804C10.2496 0.641934 10.3765 0.764775 10.4794 0.906757C10.8043 1.31852 11.1518 1.99311 11.4667 2.93679C11.8029 3.94805 12.0766 5.18835 12.2578 6.5901C10.7604 6.80047 9.24096 6.80047 7.74353 6.5901C7.92475 5.18961 8.1972 3.94805 8.53465 2.93679C8.8496 1.99311 9.19705 1.31977 9.522 0.906757C9.63401 0.753743 9.77396 0.623368 9.93444 0.522528L9.98193 0.503754L10.0069 0.5ZM1.92441 4.59636C3.09016 2.99584 4.70382 1.77757 6.56121 1.09574C6.41706 1.42949 6.28458 1.7791 6.16377 2.14455C5.78882 3.26971 5.49262 4.59511 5.29265 6.05193C4.10658 5.69273 2.978 5.20212 1.92441 4.59636ZM13.8376 2.14455C13.7159 1.7791 13.5835 1.42949 13.4402 1.09574C15.2975 1.77757 16.9112 2.99584 18.0769 4.59636C17.0127 5.20733 15.8827 5.69563 14.7087 6.05193C14.5087 4.59511 14.2125 3.27096 13.8376 2.14455Z" fill="white"/>
</svg>
