<svg width="26" height="30" viewBox="0 0 26 30" fill="none" xmlns="http://www.w3.org/2000/svg">
<path d="M25.8284 19.3743C25.8284 26.0495 21.7213 28.9785 18.5476 29.9653C17.8699 30.1755 17.4259 29.3864 17.8307 28.8044C19.2112 26.8198 20.8083 23.792 20.8083 20.9446C20.8083 17.8839 18.2291 14.2709 16.2148 12.0417C15.7551 11.5334 14.9519 11.8691 14.9268 12.5562C14.8437 14.831 14.4844 17.8713 12.9376 20.2559C12.8828 20.345 12.8072 20.4195 12.7172 20.4729C12.6273 20.5264 12.5258 20.5572 12.4213 20.5628C12.3169 20.5683 12.2126 20.5484 12.1176 20.5048C12.0225 20.4612 11.9394 20.3952 11.8755 20.3124C11.3923 19.7006 10.9091 18.946 10.4259 18.3483C10.1655 18.0282 9.69484 18.0235 9.39519 18.3075C8.2233 19.4166 6.58389 21.1454 6.58389 23.2963C6.58389 24.7553 7.14866 26.2849 7.78717 27.5164C8.13858 28.191 7.5142 29.0067 6.83961 28.6522C4.04243 27.1869 0.727539 24.2125 0.727539 19.3743C0.727539 14.4388 7.4891 7.60038 10.0714 1.14003C10.4792 0.120307 11.7343 -0.358179 12.6081 0.306995C17.895 4.33569 25.8284 12.1232 25.8284 19.3743Z" fill="black"/>
</svg>
