<svg width="10" height="10" viewBox="0 0 10 10" fill="none" xmlns="http://www.w3.org/2000/svg">
<path d="M8 10C7.58333 10 7.22917 9.85417 6.9375 9.5625C6.64583 9.27083 6.5 8.91667 6.5 8.5C6.5 8.45 6.5125 8.33333 6.5375 8.15L3.025 6.1C2.89167 6.225 2.7375 6.323 2.5625 6.394C2.3875 6.465 2.2 6.50033 2 6.5C1.58333 6.5 1.22917 6.35417 0.9375 6.0625C0.645833 5.77083 0.5 5.41667 0.5 5C0.5 4.58333 0.645833 4.22917 0.9375 3.9375C1.22917 3.64583 1.58333 3.5 2 3.5C2.2 3.5 2.3875 3.5355 2.5625 3.6065C2.7375 3.6775 2.89167 3.77533 3.025 3.9L6.5375 1.85C6.52083 1.79167 6.5105 1.7355 6.5065 1.6815C6.5025 1.6275 6.50033 1.567 6.5 1.5C6.5 1.08333 6.64583 0.729167 6.9375 0.4375C7.22917 0.145833 7.58333 0 8 0C8.41667 0 8.77083 0.145833 9.0625 0.4375C9.35417 0.729167 9.5 1.08333 9.5 1.5C9.5 1.91667 9.35417 2.27083 9.0625 2.5625C8.77083 2.85417 8.41667 3 8 3C7.8 3 7.6125 2.9645 7.4375 2.8935C7.2625 2.8225 7.10833 2.72467 6.975 2.6L3.4625 4.65C3.47917 4.70833 3.48967 4.76467 3.494 4.819C3.49833 4.87333 3.50033 4.93367 3.5 5C3.49967 5.06633 3.49767 5.12683 3.494 5.1815C3.49033 5.23617 3.47983 5.29233 3.4625 5.35L6.975 7.4C7.10833 7.275 7.2625 7.17717 7.4375 7.1065C7.6125 7.03583 7.8 7.00033 8 7C8.41667 7 8.77083 7.14583 9.0625 7.4375C9.35417 7.72917 9.5 8.08333 9.5 8.5C9.5 8.91667 9.35417 9.27083 9.0625 9.5625C8.77083 9.85417 8.41667 10 8 10Z" fill="white"/>
</svg>
