<svg width="32" height="40" viewBox="0 0 32 40" fill="none" xmlns="http://www.w3.org/2000/svg">
<path d="M17.4132 0.585579C17.0382 0.210633 16.5296 0 15.9992 0C15.4689 0 14.9603 0.210633 14.5852 0.585579L6.58513 8.58567C6.2819 8.88895 6.08418 9.28167 6.02116 9.70589C5.95814 10.1301 6.03315 10.5634 6.23513 10.9417C6.72913 11.8677 7.50114 12.4917 8.25515 12.9157L2.58509 18.5858C2.21014 18.9608 1.99951 19.4695 1.99951 19.9998C1.99951 20.5301 2.21014 21.0387 2.58509 21.4138C3.5411 22.3698 4.74911 22.9538 5.85312 23.3178L0.585068 28.5859C0.343588 28.8276 0.168063 29.1272 0.0752319 29.456C-0.0175991 29.7848 -0.0246408 30.1319 0.0547792 30.4643C0.134199 30.7966 0.297432 31.103 0.52891 31.3543C0.760388 31.6057 1.05239 31.7935 1.37708 31.8999C2.75709 32.3539 4.18311 32.6759 5.60712 32.9599C7.16714 33.2739 9.09916 33.5839 11.2972 33.7839L10.1012 37.368C10.001 37.6686 9.97377 37.9888 10.0216 38.3021C10.0695 38.6153 10.1911 38.9128 10.3765 39.1698C10.5618 39.4268 10.8056 39.6362 11.0878 39.7805C11.3699 39.9248 11.6823 40.0001 11.9992 40H19.9993C20.3162 40.0001 20.6286 39.9248 20.9107 39.7805C21.1928 39.6362 21.4366 39.4268 21.622 39.1698C21.8073 38.9128 21.929 38.6153 21.9768 38.3021C22.0247 37.9888 21.9974 37.6686 21.8973 37.368L20.7013 33.7839C22.9013 33.5839 24.8333 33.2739 26.3913 32.9619C27.8154 32.6759 29.2514 32.3539 30.6314 31.8979C30.9549 31.7902 31.2455 31.6015 31.4756 31.3498C31.7057 31.0981 31.8676 30.7918 31.9459 30.46C32.0243 30.1281 32.0165 29.7817 31.9233 29.4537C31.8301 29.1257 31.6546 28.827 31.4134 28.5859L26.1453 23.3178C27.2494 22.9558 28.4574 22.3698 29.4134 21.4138C29.7883 21.0387 29.999 20.5301 29.999 19.9998C29.999 19.4695 29.7883 18.9608 29.4134 18.5858L23.7433 12.9157C24.4973 12.4917 25.2693 11.8677 25.7633 10.9417C25.9653 10.5634 26.0403 10.1301 25.9773 9.70589C25.9143 9.28167 25.7166 8.88895 25.4133 8.58567L17.4132 0.585579Z" fill="black"/>
</svg>
