<svg width="21" height="25" viewBox="0 0 21 25" fill="none" xmlns="http://www.w3.org/2000/svg">
<path fill-rule="evenodd" clip-rule="evenodd" d="M16.7591 19.1707C13.4902 22.5527 8.88129 23.8389 5.43182 23.094L5.00239 24.1816C4.77912 24.7471 4.13974 25.0245 3.57429 24.8012C3.21568 24.6596 2.97293 24.3506 2.90027 23.9993C3.49394 21.7324 4.59543 19.2182 5.83398 17.3983C7.17056 15.4343 9.43101 13.5917 11.7785 12.5015C5.90577 14.3426 3.37169 17.5032 1.92762 21.1362C-0.866169 17.8797 -0.976794 10.0879 5.33035 7.64047C7.95075 6.62365 10.7217 4.78483 13.1588 3.16747C16.8129 0.742577 19.7168 -1.18451 20.2386 0.902881C21.1085 4.38252 21.2108 14.5647 16.7591 19.1707Z" fill="#1F0734"/>
</svg>
