<svg width="24" height="25" viewBox="0 0 24 25" fill="none" xmlns="http://www.w3.org/2000/svg">
<path opacity="0.9" fill-rule="evenodd" clip-rule="evenodd" d="M8.66589 24.2566C13.4012 24.2566 17.24 20.4178 17.24 15.6825C17.24 10.9471 13.4012 7.1084 8.66589 7.1084C3.93055 7.1084 0.0917969 10.9471 0.0917969 15.6825C0.0917969 20.4178 3.93055 24.2566 8.66589 24.2566ZM5.25791 14.7602C4.77239 15.2457 4.77239 16.0329 5.25791 16.5184L7.74365 19.0042C8.22917 19.4897 9.01635 19.4897 9.50187 19.0042L11.9876 16.5184C12.4731 16.0329 12.4731 15.2457 11.9876 14.7602L9.50187 12.2745C9.01635 11.7889 8.22917 11.7889 7.74365 12.2745L5.25791 14.7602Z" fill="#1F0734"/>
<path opacity="0.9" fill-rule="evenodd" clip-rule="evenodd" d="M19.575 16.3746C21.9028 14.8414 23.4391 12.2046 23.4391 9.20886C23.4391 4.47352 19.6004 0.634766 14.865 0.634766C11.3011 0.634766 8.2451 2.80914 6.95117 5.90364C9.35475 5.31598 12.2131 5.76199 14.7456 7.34205C18.2151 9.50669 20.0418 13.1562 19.575 16.3746Z" fill="#1F0734"/>
</svg>
