<svg width="26" height="22" viewBox="0 0 26 22" fill="none" xmlns="http://www.w3.org/2000/svg">
<path fill-rule="evenodd" clip-rule="evenodd" d="M13.9747 12.7801C13.9801 12.7369 13.9861 12.6881 13.9925 12.6337C14.1621 11.1998 14.2286 9.76146 14.1915 8.3299C14.1557 7.07087 14.0211 5.70184 13.69 4.45702C13.3613 3.21857 12.8231 2.05086 11.9446 1.25392C10.9018 0.307935 9.77582 -0.0884088 8.67229 0.0163783C7.57474 0.121246 6.5895 0.712634 5.81322 1.56837C4.89605 2.57944 4.54711 3.89015 4.72469 5.12182C3.48159 5.06474 2.21045 5.53995 1.29381 6.55043C-0.34381 8.35569 -0.170554 11.0985 1.57653 12.6833C2.45505 13.4803 3.66949 13.9013 4.93405 14.1093C6.20514 14.3179 7.58078 14.3189 8.83788 14.2327C10.1307 14.1398 11.4207 13.9619 12.6995 13.7003L22.2891 21.8145C22.3502 21.8673 22.4176 21.9088 22.4887 21.939C22.701 22.0294 22.9435 22.018 23.1457 21.9107C23.2132 21.8748 23.2763 21.8282 23.3322 21.7711L25.6163 19.487C25.9143 19.189 25.9143 18.7059 25.6163 18.4079C25.3183 18.1099 24.8351 18.1099 24.5371 18.4079L22.7444 20.2006L22.2602 19.7909L25.6163 16.4348C25.9143 16.1368 25.9143 15.6536 25.6163 15.3556C25.3183 15.0576 24.8351 15.0576 24.5371 15.3556L21.0911 18.8017L20.6069 18.3919L22.564 16.4348C22.862 16.1368 22.862 15.6536 22.564 15.3556C22.266 15.0576 21.7829 15.0576 21.4849 15.3556L19.4378 17.4027L13.9747 12.7801Z" fill="#FAFCFE"/>
</svg>
