<svg width="34" height="26" viewBox="0 0 34 26" fill="none" xmlns="http://www.w3.org/2000/svg">
<path fill-rule="evenodd" clip-rule="evenodd" d="M25.1351 4.06354C24.4299 2.87542 22.9611 2.27657 22.2804 2.05358C20.9032 1.60241 19.7783 1.53822 18.4868 1.46452C17.225 1.39252 15.8042 1.31145 13.8336 0.851562C14.7341 4.65168 15.7202 6.16372 16.5778 7.13339C17.4353 8.10287 19.3595 9.17939 20.2224 9.26609C21.0931 9.35357 21.8153 9.3542 22.4443 9.2573C21.4899 11.3983 21.2256 13.9356 21.3094 16.3605C21.4113 19.3122 22.032 22.181 22.6432 24.148H9.88707C10.4077 23.0028 10.9276 21.4542 11.1038 19.8584C11.2689 18.3635 11.137 16.7651 10.3592 15.4291C10.8321 15.3496 11.3428 15.179 11.9337 14.9118C12.5181 14.6474 13.5673 13.4342 13.8938 12.5477C14.2204 11.661 14.4816 10.361 14.0238 7.46535C12.7645 8.25399 11.7844 8.64571 10.9141 8.99357C10.0232 9.34963 9.24724 9.65975 8.40448 10.3026C7.98795 10.6203 7.12294 11.389 6.96691 12.3941C6.45079 12.355 5.97685 12.382 5.45598 12.4117C4.72728 12.4531 3.90673 12.4998 2.75032 12.3783C3.46861 14.3588 4.1151 15.1069 4.65908 15.5724C5.20295 16.0378 6.36535 16.4929 6.86566 16.4847C7.98438 16.4662 8.66179 16.2652 9.23664 15.7815C9.26657 15.7458 9.29656 15.7077 9.3262 15.6674C10.1004 16.7937 10.2756 18.2484 10.1099 19.7487C9.92504 21.4224 9.32273 23.0625 8.77946 24.148H1.16699C0.89085 24.148 0.666992 24.3719 0.666992 24.648C0.666992 24.9242 0.89085 25.148 1.16699 25.148H9.06938C9.07851 25.1483 9.08764 25.1483 9.09675 25.148H23.3159C23.3196 25.1482 23.3233 25.1482 23.327 25.1483C23.3346 25.1484 23.3423 25.1483 23.35 25.148H32.833C33.1092 25.148 33.333 24.9242 33.333 24.648C33.333 24.3719 33.1092 24.148 32.833 24.148H23.6926C23.0757 22.2553 22.4125 19.3292 22.3088 16.3259C22.2175 13.6836 22.5614 11.052 23.6844 9.00519C23.7997 9.09161 23.9147 9.16659 24.0247 9.2303C24.9871 9.59448 25.9337 9.56351 27.3377 9.12171C27.9656 8.92413 29.1835 7.87377 29.6251 7.06756C30.0667 6.26121 30.4926 5.05988 30.3819 2.29248C29.002 2.9245 27.9553 3.20725 27.0258 3.45835C26.3621 3.63766 25.758 3.80083 25.1351 4.06354Z" fill="white"/>
</svg>
