<svg width="26" height="34" viewBox="0 0 26 34" fill="none" xmlns="http://www.w3.org/2000/svg">
<path fill-rule="evenodd" clip-rule="evenodd" d="M7.07376 0.774594C7.06051 0.762718 7.04604 0.754898 7.03133 0.751674C7.01662 0.748449 7.00202 0.749895 6.98854 0.755913C6.97505 0.76193 6.96301 0.772376 6.95322 0.786534C6.94343 0.800691 6.93614 0.818224 6.93185 0.837927C6.81131 1.39234 6.44306 3.28742 6.76552 4.42554C7.06601 5.48612 7.6883 5.96047 8.37612 5.65349C9.06394 5.34652 9.3079 4.48557 9.00741 3.42498C8.68495 2.28687 7.44605 1.10906 7.07376 0.774594ZM5.8838 7.03108C5.86869 7.02164 5.8522 7.01547 5.83548 7.01299C5.81875 7.01052 5.80217 7.0118 5.78689 7.01675C5.77161 7.0217 5.75799 7.03021 5.74695 7.04167C5.73592 7.05314 5.72774 7.06731 5.72297 7.08319C5.58926 7.53014 5.18193 9.05756 5.55482 9.97042C5.90231 10.8211 6.61193 11.1976 7.39148 10.945C8.17102 10.6924 8.44315 9.9979 8.09566 9.14723C7.72277 8.23437 6.30864 7.29708 5.8838 7.03108ZM10.8328 6.99609C10.8495 6.99949 10.866 7.00772 10.8811 7.02023C11.3052 7.37245 12.7163 8.6128 13.0836 9.81134C13.4258 10.9282 13.1479 11.8349 12.3645 12.1582C11.5811 12.4815 10.8723 11.9819 10.53 10.865C10.1627 9.66648 10.5822 7.67077 10.7195 7.08692C10.7244 7.06617 10.7327 7.04771 10.7438 7.0328C10.755 7.01789 10.7687 7.00689 10.784 7.00055C10.7994 6.99422 10.816 6.99269 10.8328 6.99609ZM12.1259 2.02109C12.111 2.01039 12.0946 2.00335 12.078 2.00044C12.0613 1.99754 12.0448 1.99884 12.0296 2.00426C12.0143 2.00968 12.0007 2.01909 11.9896 2.03185C11.9786 2.0446 11.9703 2.06039 11.9655 2.07815C11.8292 2.5776 11.4128 4.28485 11.7774 5.31015C12.1172 6.26561 12.8208 6.69294 13.5985 6.41639C14.3762 6.13984 14.652 5.36423 14.3122 4.40877C13.9476 3.38347 12.5469 2.3224 12.1259 2.02109ZM1.30875 1.24683C1.33098 1.25071 1.35285 1.26013 1.37286 1.27443C1.93542 1.67711 3.80749 3.09517 4.29475 4.46543C4.74882 5.74235 4.38018 6.77891 3.34083 7.1485C2.30148 7.5181 1.36116 6.94699 0.907087 5.67008C0.419824 4.29981 0.976288 2.01818 1.15843 1.35068C1.16492 1.32696 1.17593 1.30585 1.19072 1.2888C1.20551 1.27176 1.22371 1.25918 1.24409 1.25194C1.26446 1.24469 1.28652 1.24295 1.30875 1.24683ZM15.7115 13.9474C15.7115 15.0119 16.084 15.853 16.5475 16.4706C15.6469 17.474 14.9418 18.6002 14.3959 19.7852C14.3756 19.7772 14.3545 19.7704 14.3328 19.765C14.0452 19.6931 13.5389 19.5109 13.0127 19.2052C12.6792 19.0115 12.3507 18.7757 12.0674 18.4982C12.2899 18.1102 12.4484 17.5716 12.3113 16.9321C12.1153 16.0173 11.1757 15.5868 10.7823 15.4443C10.1187 15.2039 9.57659 15.1697 8.95423 15.1304C8.34619 15.092 7.66151 15.0488 6.71191 14.8038C7.14583 16.8287 7.62103 17.6343 8.0343 18.151C8.4475 18.6676 9.37476 19.2412 9.79057 19.2874C10.4331 19.3588 10.9079 19.3216 11.3104 19.1555C11.6833 19.5334 12.107 19.8356 12.5104 20.0699C13.0736 20.397 13.6253 20.6081 14.0048 20.7126C13.5825 21.8097 13.2832 22.9416 13.0798 24.0606C12.4626 27.4577 12.7169 30.7983 13.1448 32.852C13.2011 33.1223 13.4659 33.2958 13.7363 33.2395C14.0066 33.1832 14.1801 32.9184 14.1238 32.6481C13.8897 31.5247 13.7089 29.9805 13.7116 28.25C14.2513 28.25 15.1195 28.1703 16.0145 27.9334C16.1691 27.8925 16.3263 27.8464 16.4842 27.7945C16.6103 28.0535 16.7624 28.2706 16.9091 28.4391C17.5861 28.9806 18.3444 29.143 19.563 29.0077C20.108 28.9471 21.3233 28.1953 21.8649 27.5182C22.4066 26.841 23.0294 25.7851 23.5981 23.1312C22.3535 23.4523 21.4561 23.509 20.6592 23.5592C19.8435 23.6107 19.133 23.6555 18.2632 23.9706C17.7476 24.1574 16.5161 24.7217 16.2591 25.9206C16.1895 26.2458 16.1781 26.5512 16.2073 26.8328C16.06 26.8821 15.9099 26.9266 15.7586 26.9667C14.9663 27.1764 14.1965 27.2478 13.7336 27.25C13.7752 26.2758 13.8783 25.2598 14.0637 24.2394C14.5242 21.7052 15.4848 19.1817 17.2386 17.1987C17.2936 17.2446 17.3481 17.2876 17.4016 17.3277C18.5284 17.8908 19.6551 17.8908 21.3453 17.3274C22.1011 17.0755 23.5989 15.6374 24.1622 14.5105C24.7255 13.3835 25.2889 11.6936 25.2889 7.75C23.6185 8.58523 22.3608 8.93888 21.2438 9.25295C20.1006 9.57442 19.1049 9.85441 17.965 10.5669C17.2894 10.9892 15.7115 12.1659 15.7115 13.9474Z" fill="white"/>
</svg>
