<svg width="18" height="20" viewBox="0 0 18 20" fill="none" xmlns="http://www.w3.org/2000/svg">
<g opacity="0.9" filter="url(#filter0_ii_882_711)">
<path d="M0 17.7143V7.42857C0 7.06666 0.0798748 6.72381 0.239625 6.4C0.399375 6.07619 0.6195 5.80952 0.9 5.6L7.65 0.457143C8.04375 0.152381 8.49375 0 9 0C9.50625 0 9.95625 0.152381 10.35 0.457143L17.1 5.6C17.3812 5.80952 17.6017 6.07619 17.7615 6.4C17.9212 6.72381 18.0007 7.06666 18 7.42857V17.7143C18 18.3429 17.7795 18.8811 17.3385 19.3291C16.8975 19.7771 16.368 20.0008 15.75 20H12.375C12.0562 20 11.7892 19.8903 11.574 19.6709C11.3587 19.4514 11.2507 19.1802 11.25 18.8571V13.1429C11.25 12.819 11.142 12.5478 10.926 12.3291C10.71 12.1105 10.443 12.0008 10.125 12H7.875C7.55625 12 7.28925 12.1097 7.074 12.3291C6.85875 12.5486 6.75075 12.8198 6.75 13.1429V18.8571C6.75 19.1809 6.642 19.4526 6.426 19.672C6.21 19.8914 5.943 20.0008 5.625 20H2.25C1.63125 20 1.10175 19.7764 0.6615 19.3291C0.22125 18.8819 0.00075 18.3436 0 17.7143Z" fill="url(#paint0_linear_882_711)"/>
</g>
<defs>
<filter id="filter0_ii_882_711" x="0" y="-2" width="18" height="24" filterUnits="userSpaceOnUse" color-interpolation-filters="sRGB">
<feFlood flood-opacity="0" result="BackgroundImageFix"/>
<feBlend mode="normal" in="SourceGraphic" in2="BackgroundImageFix" result="shape"/>
<feColorMatrix in="SourceAlpha" type="matrix" values="0 0 0 0 0 0 0 0 0 0 0 0 0 0 0 0 0 0 127 0" result="hardAlpha"/>
<feOffset dy="-2"/>
<feGaussianBlur stdDeviation="2"/>
<feComposite in2="hardAlpha" operator="arithmetic" k2="-1" k3="1"/>
<feColorMatrix type="matrix" values="0 0 0 0 0.651204 0 0 0 0 0.459121 0 0 0 0 0.0464979 0 0 0 1 0"/>
<feBlend mode="normal" in2="shape" result="effect1_innerShadow_882_711"/>
<feColorMatrix in="SourceAlpha" type="matrix" values="0 0 0 0 0 0 0 0 0 0 0 0 0 0 0 0 0 0 127 0" result="hardAlpha"/>
<feOffset dy="2"/>
<feGaussianBlur stdDeviation="1"/>
<feComposite in2="hardAlpha" operator="arithmetic" k2="-1" k3="1"/>
<feColorMatrix type="matrix" values="0 0 0 0 1 0 0 0 0 1 0 0 0 0 1 0 0 0 0.7 0"/>
<feBlend mode="normal" in2="effect1_innerShadow_882_711" result="effect2_innerShadow_882_711"/>
</filter>
<linearGradient id="paint0_linear_882_711" x1="0" y1="10" x2="18" y2="10" gradientUnits="userSpaceOnUse">
<stop stop-color="#E2C1F9"/>
<stop offset="0.33" stop-color="#FEBD8E"/>
<stop offset="0.66" stop-color="#FBFFE4"/>
<stop offset="1" stop-color="#B6D0F7"/>
</linearGradient>
</defs>
</svg>
