<svg width="34" height="36" viewBox="0 0 34 36" fill="none" xmlns="http://www.w3.org/2000/svg">
<g filter="url(#filter0_dii_882_708)">
<path d="M11.4231 26H10.0385C9.76304 26 9.49891 25.8946 9.30416 25.7071C9.10941 25.5196 9 25.2652 9 25V19C9 18.7348 9.10941 18.4804 9.30416 18.2929C9.49891 18.1054 9.76304 18 10.0385 18H11.4231C11.6985 18 11.9626 18.1054 12.1574 18.2929C12.3521 18.4804 12.4615 18.7348 12.4615 19V25C12.4615 25.2652 12.3521 25.5196 12.1574 25.7071C11.9626 25.8946 11.6985 26 11.4231 26ZM21.1154 26H19.7308C19.4554 26 19.1912 25.8946 18.9965 25.7071C18.8017 25.5196 18.6923 25.2652 18.6923 25V15C18.6923 14.7348 18.8017 14.4804 18.9965 14.2929C19.1912 14.1054 19.4554 14 19.7308 14H21.1154C21.3908 14 21.6549 14.1054 21.8497 14.2929C22.0444 14.4804 22.1538 14.7348 22.1538 15V25C22.1538 25.2652 22.0444 25.5196 21.8497 25.7071C21.6549 25.8946 21.3908 26 21.1154 26ZM25.9615 26H24.5769C24.3015 26 24.0374 25.8946 23.8426 25.7071C23.6479 25.5196 23.5385 25.2652 23.5385 25V10.3333C23.5385 10.0681 23.6479 9.81376 23.8426 9.62623C24.0374 9.43869 24.3015 9.33333 24.5769 9.33333H25.9615C26.237 9.33333 26.5011 9.43869 26.6958 9.62623C26.8906 9.81376 27 10.0681 27 10.3333V25C27 25.2652 26.8906 25.5196 26.6958 25.7071C26.5011 25.8946 26.237 26 25.9615 26ZM16.2692 26H14.8846C14.6092 26 14.3451 25.8946 14.1503 25.7071C13.9556 25.5196 13.8462 25.2652 13.8462 25V7C13.8462 6.73478 13.9556 6.48043 14.1503 6.29289C14.3451 6.10536 14.6092 6 14.8846 6H16.2692C16.5446 6 16.8088 6.10536 17.0035 6.29289C17.1983 6.48043 17.3077 6.73478 17.3077 7V25C17.3077 25.2652 17.1983 25.5196 17.0035 25.7071C16.8088 25.8946 16.5446 26 16.2692 26Z" fill="white" fill-opacity="0.2" shape-rendering="crispEdges"/>
</g>
<defs>
<filter id="filter0_dii_882_708" x="0.2" y="0.2" width="33.6" height="35.6" filterUnits="userSpaceOnUse" color-interpolation-filters="sRGB">
<feFlood flood-opacity="0" result="BackgroundImageFix"/>
<feColorMatrix in="SourceAlpha" type="matrix" values="0 0 0 0 0 0 0 0 0 0 0 0 0 0 0 0 0 0 127 0" result="hardAlpha"/>
<feOffset dx="-1" dy="2"/>
<feGaussianBlur stdDeviation="3.9"/>
<feComposite in2="hardAlpha" operator="out"/>
<feColorMatrix type="matrix" values="0 0 0 0 0.862745 0 0 0 0 0.470588 0 0 0 0 0.992157 0 0 0 0.2 0"/>
<feBlend mode="normal" in2="BackgroundImageFix" result="effect1_dropShadow_882_708"/>
<feBlend mode="normal" in="SourceGraphic" in2="effect1_dropShadow_882_708" result="shape"/>
<feColorMatrix in="SourceAlpha" type="matrix" values="0 0 0 0 0 0 0 0 0 0 0 0 0 0 0 0 0 0 127 0" result="hardAlpha"/>
<feOffset dy="-2"/>
<feGaussianBlur stdDeviation="2"/>
<feComposite in2="hardAlpha" operator="arithmetic" k2="-1" k3="1"/>
<feColorMatrix type="matrix" values="0 0 0 0 0.627964 0 0 0 0 0.260844 0 0 0 0 0.745443 0 0 0 1 0"/>
<feBlend mode="normal" in2="shape" result="effect2_innerShadow_882_708"/>
<feColorMatrix in="SourceAlpha" type="matrix" values="0 0 0 0 0 0 0 0 0 0 0 0 0 0 0 0 0 0 127 0" result="hardAlpha"/>
<feOffset dy="2"/>
<feGaussianBlur stdDeviation="0.5"/>
<feComposite in2="hardAlpha" operator="arithmetic" k2="-1" k3="1"/>
<feColorMatrix type="matrix" values="0 0 0 0 1 0 0 0 0 1 0 0 0 0 1 0 0 0 0.7 0"/>
<feBlend mode="normal" in2="effect2_innerShadow_882_708" result="effect3_innerShadow_882_708"/>
</filter>
</defs>
</svg>
