<svg width="35" height="36" viewBox="0 0 35 36" fill="none" xmlns="http://www.w3.org/2000/svg">
<g filter="url(#filter0_dii_882_710)">
<path d="M10.13 7.65575C9.94577 8.01591 9.85517 8.46211 9.67397 9.35251L9.06521 12.3439C8.97893 12.7517 8.97826 13.1726 9.06324 13.5807C9.14822 13.9888 9.31707 14.3756 9.55943 14.7174C9.8018 15.0591 10.1126 15.3487 10.4728 15.5683C10.833 15.7879 11.235 15.933 11.6542 15.9946C12.0734 16.0563 12.501 16.0332 12.9108 15.9268C13.3207 15.8203 13.7041 15.6328 14.0376 15.3757C14.3711 15.1186 14.6477 14.7973 14.8505 14.4315C15.0533 14.0657 15.178 13.6631 15.217 13.2483L15.2882 12.558C15.2496 12.997 15.3047 13.4391 15.4498 13.8561C15.5949 14.273 15.827 14.6556 16.1311 14.9794C16.4352 15.3033 16.8047 15.5612 17.216 15.7367C17.6273 15.9123 18.0713 16.0016 18.5197 15.9989C18.9681 15.9963 19.411 15.9017 19.8201 15.7213C20.2292 15.5409 20.5955 15.2786 20.8956 14.9512C21.1957 14.6238 21.4231 14.2385 21.5631 13.8199C21.7031 13.4012 21.7527 12.9585 21.7087 12.5199L21.783 13.2483C21.822 13.6631 21.9467 14.0657 22.1495 14.4315C22.3522 14.7973 22.6289 15.1186 22.9624 15.3757C23.2959 15.6328 23.6793 15.8203 24.0892 15.9268C24.499 16.0332 24.9266 16.0563 25.3458 15.9946C25.765 15.933 26.167 15.7879 26.5272 15.5683C26.8874 15.3487 27.1982 15.0591 27.4406 14.7174C27.6829 14.3756 27.8518 13.9888 27.9368 13.5807C28.0217 13.1726 28.0211 12.7517 27.9348 12.3439L27.326 9.35251C27.1448 8.46211 27.0542 8.01691 26.87 7.65575C26.678 7.27961 26.4077 6.94736 26.0765 6.68056C25.7454 6.41375 25.3609 6.21835 24.948 6.10705C24.551 6 24.0888 6 23.1645 6H13.8355C12.9112 6 12.449 6 12.052 6.10705C11.6391 6.21835 11.2546 6.41375 10.9235 6.68056C10.5923 6.94736 10.322 7.27961 10.13 7.65575ZM24.8818 17.5052C25.6772 17.5072 26.4596 17.3069 27.153 16.9239V18.0054C27.153 21.7781 27.153 23.6649 25.9599 24.8365C24.9999 25.7809 23.5696 25.964 21.045 26V22.5074C21.045 21.572 21.045 21.1048 20.8404 20.7566C20.7064 20.5285 20.5136 20.3391 20.2815 20.2074C19.9272 20.0063 19.4518 20.0063 18.5 20.0063C17.5482 20.0063 17.0728 20.0063 16.7185 20.2074C16.4864 20.3391 16.2936 20.5285 16.1596 20.7566C15.955 21.1048 15.955 21.572 15.955 22.5074V26C13.4304 25.964 12.0001 25.7799 11.0401 24.8365C9.84703 23.6649 9.84703 21.7781 9.84703 18.0054V16.9239C10.5407 17.3071 11.3235 17.5073 12.1192 17.5052C13.2956 17.5059 14.4283 17.0667 15.2872 16.2766C16.1624 17.0693 17.3098 17.5081 18.5 17.5052C19.6902 17.5081 20.8376 17.0693 21.7128 16.2766C22.5717 17.0667 23.7054 17.5059 24.8818 17.5052Z" fill="white" fill-opacity="0.2" shape-rendering="crispEdges"/>
</g>
<defs>
<filter id="filter0_dii_882_710" x="0.2" y="0.2" width="34.6" height="35.6" filterUnits="userSpaceOnUse" color-interpolation-filters="sRGB">
<feFlood flood-opacity="0" result="BackgroundImageFix"/>
<feColorMatrix in="SourceAlpha" type="matrix" values="0 0 0 0 0 0 0 0 0 0 0 0 0 0 0 0 0 0 127 0" result="hardAlpha"/>
<feOffset dx="-1" dy="2"/>
<feGaussianBlur stdDeviation="3.9"/>
<feComposite in2="hardAlpha" operator="out"/>
<feColorMatrix type="matrix" values="0 0 0 0 0.862745 0 0 0 0 0.470588 0 0 0 0 0.992157 0 0 0 0.2 0"/>
<feBlend mode="normal" in2="BackgroundImageFix" result="effect1_dropShadow_882_710"/>
<feBlend mode="normal" in="SourceGraphic" in2="effect1_dropShadow_882_710" result="shape"/>
<feColorMatrix in="SourceAlpha" type="matrix" values="0 0 0 0 0 0 0 0 0 0 0 0 0 0 0 0 0 0 127 0" result="hardAlpha"/>
<feOffset dy="-2"/>
<feGaussianBlur stdDeviation="2"/>
<feComposite in2="hardAlpha" operator="arithmetic" k2="-1" k3="1"/>
<feColorMatrix type="matrix" values="0 0 0 0 0.627964 0 0 0 0 0.260844 0 0 0 0 0.745443 0 0 0 1 0"/>
<feBlend mode="normal" in2="shape" result="effect2_innerShadow_882_710"/>
<feColorMatrix in="SourceAlpha" type="matrix" values="0 0 0 0 0 0 0 0 0 0 0 0 0 0 0 0 0 0 127 0" result="hardAlpha"/>
<feOffset dy="2"/>
<feGaussianBlur stdDeviation="0.5"/>
<feComposite in2="hardAlpha" operator="arithmetic" k2="-1" k3="1"/>
<feColorMatrix type="matrix" values="0 0 0 0 1 0 0 0 0 1 0 0 0 0 1 0 0 0 0.7 0"/>
<feBlend mode="normal" in2="effect2_innerShadow_882_710" result="effect3_innerShadow_882_710"/>
</filter>
</defs>
</svg>
